{
  "source": "C:\\Users\\Peter\\Desktop\\stuff\\MIUN\\quantitative_research\\video_compression\\videos\\UVG\\ShakeNDry_1920x1080_120fps_420_8bit_YUV.y4m",
  "output": "C:\\Users\\Peter\\Desktop\\stuff\\MIUN\\quantitative_research\\video_compression\\compressed_videos\\UVG\\hevc\\8\\ShakeNDry_1920x1080_120fps_420_8bit_YUV_hevc.mp4",
  "codec": "hevc",
  "ok": "[yuv4mpegpipe @ 000001ffeae46740] Stream #0: not enough frames to estimate rate; consider increasing probesize\nInput #0, yuv4mpegpipe, from 'C:\\Users\\Peter\\Desktop\\stuff\\MIUN\\quantitative_research\\video_compression\\videos\\UVG\\ShakeNDry_1920x1080_120fps_420_8bit_YUV.y4m':\n  Duration: 00:00:02.50, start: 0.000000, bitrate: 2985989 kb/s\n  Stream #0:0: Video: rawvideo (I420 / 0x30323449), yuv420p(progressive), 1920x1080, 120 fps, 120 tbr, 120 tbn\n[out#0/mp4 @ 000001ffeae49a80] Codec AVOption b:a (set bitrate (in bits/s)) has not been used for any stream. The most likely reason is either wrong type (e.g. a video option with no video streams) or that it is a private option of some decoder which was not actually used for any stream.\nStream mapping:\n  Stream #0:0 -> #0:0 (rawvideo (native) -> hevc (libx265))\nPress [q] to stop, [?] for help\n[libx265 @ 000001ffeae4cac0] Unknown option: \"aq-mode.\nx265 [info]: HEVC encoder version 4.1+190-8f11c33ac\nx265 [info]: build info [Windows][GCC 15.1.0][64 bit] 10bit\nx265 [info]: using cpu capabilities: MMX2 SSE2Fast LZCNT SSSE3 SSE4.2 AVX FMA3 BMI2 AVX2\nx265 [info]: Main 10 profile, Level-5 (Main tier)\nx265 [info]: Thread pool created using 12 threads\nx265 [info]: Slices                              : 1\nx265 [info]: frame threads / pool features       : 3 / wpp(17 rows)\nx265 [info]: Coding QT: max CU size, min CU size : 64 / 8\nx265 [info]: Residual QT: max TU size, max depth : 32 / 1 inter / 1 intra\nx265 [info]: ME / range / subpel / merge         : star / 57 / 3 / 3\nx265 [info]: Keyframe min / max / scenecut / bias  : 25 / 250 / 40 / 5.00 \nx265 [info]: Lookahead / bframes / badapt        : 25 / 4 / 2\nx265 [info]: b-pyramid / weightp / weightb       : 1 / 1 / 0\nx265 [info]: References / ref-limit  cu / depth  : 4 / on / on\nx265 [info]: AQ: mode / str / qg-size / cu-tree  : 2 / 1.0 / 32 / 1\nx265 [info]: Rate Control / qCompress            : ABR-8000 kbps / 0.60\nx265 [info]: VBV/HRD buffer / max-rate / init    : 8000 / 8000 / 0.750\nx265 [info]: tools: rect limit-modes rd=4 psy-rd=2.00 rdoq=2 psy-rdoq=1.00\nx265 [info]: tools: rskip mode=1 signhide tmvp strong-intra-smoothing lslices=4\nx265 [info]: tools: deblock sao dhdr10-info\nOutput #0, mp4, to 'C:\\Users\\Peter\\Desktop\\stuff\\MIUN\\quantitative_research\\video_compression\\compressed_videos\\UVG\\hevc\\8\\ShakeNDry_1920x1080_120fps_420_8bit_YUV_hevc.mp4':\n  Metadata:\n    encoder         : Lavf62.3.100\n  Stream #0:0: Video: hevc (hev1 / 0x31766568), yuv420p10le(tv, progressive), 1920x1080, q=2-31, 8000 kb/s, 120 fps, 15360 tbn\n    Metadata:\n      encoder         : Lavc62.11.100 libx265\n    Side data:\n      cpb: bitrate max/min/avg: 8000000/0/8000000 buffer size: 8000000 vbv_delay: N/A\nframe=    0 fps=0.0 q=0.0 size=       0KiB time=N/A bitrate=N/A speed=N/A elapsed=0:00:00.51    \nframe=    0 fps=0.0 q=0.0 size=       0KiB time=N/A bitrate=N/A speed=N/A elapsed=0:00:01.02    \nframe=    0 fps=0.0 q=0.0 size=       0KiB time=N/A bitrate=N/A speed=N/A elapsed=0:00:01.54    \nframe=    0 fps=0.0 q=0.0 size=       0KiB time=N/A bitrate=N/A speed=N/A elapsed=0:00:02.05    \nframe=    0 fps=0.0 q=0.0 size=       0KiB time=N/A bitrate=N/A speed=N/A elapsed=0:00:02.56    \nframe=    1 fps=0.3 q=40.2 size=       0KiB time=-00:00:00.00 bitrate=N/A speed=N/A elapsed=0:00:03.08    \nframe=    3 fps=0.8 q=49.7 size=       0KiB time=00:00:00.00 bitrate=  42.2kbits/s speed=0.00231x elapsed=0:00:03.61    \nframe=    4 fps=1.0 q=49.8 size=       0KiB time=00:00:00.01 bitrate=  21.1kbits/s speed=0.00405x elapsed=0:00:04.11    \nframe=    5 fps=1.1 q=47.5 size=       0KiB time=00:00:00.02 bitrate=  14.1kbits/s speed=0.00539x elapsed=0:00:04.64    \nframe=    5 fps=1.0 q=47.5 size=       0KiB time=00:00:00.02 bitrate=  14.1kbits/s speed=0.00485x elapsed=0:00:05.15    \nframe=    6 fps=1.1 q=46.4 size=       0KiB time=00:00:00.03 bitrate=  10.6kbits/s speed=0.00588x elapsed=0:00:05.66    \nframe=    7 fps=1.1 q=38.4 size=       0KiB time=00:00:00.04 bitrate=   8.4kbits/s speed=0.00674x elapsed=0:00:06.18    \nframe=    8 fps=1.2 q=40.6 size=       0KiB time=00:00:00.05 bitrate=   7.0kbits/s speed=0.00746x elapsed=0:00:06.69    \nframe=    9 fps=1.2 q=40.5 size=       0KiB time=00:00:00.05 bitrate=   6.0kbits/s speed=0.00809x elapsed=0:00:07.20    \nframe=   10 fps=1.3 q=41.1 size=       0KiB time=00:00:00.06 bitrate=   5.3kbits/s speed=0.00863x elapsed=0:00:07.72    \nframe=   10 fps=1.2 q=41.1 size=       0KiB time=00:00:00.06 bitrate=   5.3kbits/s speed=0.00809x elapsed=0:00:08.24    \nframe=   12 fps=1.4 q=35.4 size=       0KiB time=00:00:00.08 bitrate=   4.2kbits/s speed=0.00951x elapsed=0:00:08.76    \nframe=   13 fps=1.4 q=41.3 size=       0KiB time=00:00:00.09 bitrate=   3.8kbits/s speed=0.00989x elapsed=0:00:09.27    \nframe=   14 fps=1.4 q=43.1 size=       0KiB time=00:00:00.10 bitrate=   3.5kbits/s speed=0.0102x elapsed=0:00:09.78    \nframe=   15 fps=1.5 q=43.1 size=       0KiB time=00:00:00.10 bitrate=   3.2kbits/s speed=0.0105x elapsed=0:00:10.31    \nframe=   15 fps=1.4 q=43.1 size=       0KiB time=00:00:00.10 bitrate=   3.2kbits/s speed=0.01x elapsed=0:00:10.82    \nframe=   16 fps=1.4 q=42.1 size=       0KiB time=00:00:00.11 bitrate=   3.0kbits/s speed=0.0103x elapsed=0:00:11.34    \nframe=   17 fps=1.4 q=37.4 size=       0KiB time=00:00:00.12 bitrate=   2.8kbits/s speed=0.0105x elapsed=0:00:11.85    \nframe=   18 fps=1.5 q=40.3 size=       0KiB time=00:00:00.13 bitrate=   2.6kbits/s speed=0.0108x elapsed=0:00:12.36    \nframe=   19 fps=1.5 q=41.4 size=       0KiB time=00:00:00.14 bitrate=   2.5kbits/s speed=0.011x elapsed=0:00:12.89    \nframe=   20 fps=1.5 q=41.4 size=       0KiB time=00:00:00.15 bitrate=   2.3kbits/s speed=0.0112x elapsed=0:00:13.42    \nframe=   20 fps=1.4 q=41.4 size=       0KiB time=00:00:00.15 bitrate=   2.3kbits/s speed=0.0108x elapsed=0:00:13.92    \nframe=   21 fps=1.5 q=42.0 size=       0KiB time=00:00:00.15 bitrate=   2.2kbits/s speed=0.0109x elapsed=0:00:14.46    \nframe=   22 fps=1.5 q=36.6 size=       0KiB time=00:00:00.16 bitrate=   2.1kbits/s speed=0.0111x elapsed=0:00:14.98    \nframe=   22 fps=1.4 q=36.6 size=       0KiB time=00:00:00.16 bitrate=   2.1kbits/s speed=0.0108x elapsed=0:00:15.49    \nframe=   23 fps=1.4 q=40.8 size=       0KiB time=00:00:00.17 bitrate=   2.0kbits/s speed=0.0109x elapsed=0:00:16.02    \nframe=   23 fps=1.4 q=40.8 size=       0KiB time=00:00:00.17 bitrate=   2.0kbits/s speed=0.0106x elapsed=0:00:16.54    \nframe=   24 fps=1.4 q=42.0 size=       0KiB time=00:00:00.18 bitrate=   1.9kbits/s speed=0.0107x elapsed=0:00:17.07    \nframe=   24 fps=1.4 q=42.0 size=       0KiB time=00:00:00.18 bitrate=   1.9kbits/s speed=0.0104x elapsed=0:00:17.59    \nframe=   25 fps=1.4 q=42.0 size=       0KiB time=00:00:00.19 bitrate=   1.8kbits/s speed=0.0106x elapsed=0:00:18.10    \nframe=   25 fps=1.3 q=42.0 size=       0KiB time=00:00:00.19 bitrate=   1.8kbits/s speed=0.0103x elapsed=0:00:18.64    \nframe=   25 fps=1.3 q=42.0 size=       0KiB time=00:00:00.19 bitrate=   1.8kbits/s speed=0.01x elapsed=0:00:19.15    \nframe=   26 fps=1.3 q=42.0 size=       0KiB time=00:00:00.20 bitrate=   1.8kbits/s speed=0.0102x elapsed=0:00:19.68    \nframe=   26 fps=1.3 q=42.0 size=       0KiB time=00:00:00.20 bitrate=   1.8kbits/s speed=0.0099x elapsed=0:00:20.19    \nframe=   26 fps=1.3 q=42.0 size=       0KiB time=00:00:00.20 bitrate=   1.8kbits/s speed=0.00965x elapsed=0:00:20.71    \nframe=   27 fps=1.3 q=36.5 size=       0KiB time=00:00:00.20 bitrate=   1.7kbits/s speed=0.0098x elapsed=0:00:21.25    \nframe=   27 fps=1.2 q=36.5 size=       0KiB time=00:00:00.20 bitrate=   1.7kbits/s speed=0.00957x elapsed=0:00:21.77    \nframe=   28 fps=1.3 q=40.3 size=       0KiB time=00:00:00.21 bitrate=   1.6kbits/s speed=0.00972x elapsed=0:00:22.29    \nframe=   28 fps=1.2 q=40.3 size=       0KiB time=00:00:00.21 bitrate=   1.6kbits/s speed=0.00949x elapsed=0:00:22.83    \nframe=   28 fps=1.2 q=40.3 size=       0KiB time=00:00:00.21 bitrate=   1.6kbits/s speed=0.00928x elapsed=0:00:23.34    \nframe=   29 fps=1.2 q=41.9 size=       0KiB time=00:00:00.22 bitrate=   1.6kbits/s speed=0.00942x elapsed=0:00:23.87    \nframe=   29 fps=1.2 q=41.9 size=       0KiB time=00:00:00.22 bitrate=   1.6kbits/s speed=0.00922x elapsed=0:00:24.39    \nframe=   30 fps=1.2 q=41.9 size=       0KiB time=00:00:00.23 bitrate=   1.5kbits/s speed=0.00936x elapsed=0:00:24.92    \nframe=   30 fps=1.2 q=41.9 size=       0KiB time=00:00:00.23 bitrate=   1.5kbits/s speed=0.00917x elapsed=0:00:25.44    \nframe=   30 fps=1.2 q=41.9 size=       0KiB time=00:00:00.23 bitrate=   1.5kbits/s speed=0.00899x elapsed=0:00:25.96    \nframe=   31 fps=1.2 q=41.4 size=       0KiB time=00:00:00.24 bitrate=   1.5kbits/s speed=0.00913x elapsed=0:00:26.47    \nframe=   31 fps=1.1 q=41.4 size=       0KiB time=00:00:00.24 bitrate=   1.5kbits/s speed=0.00895x elapsed=0:00:26.99    \nframe=   31 fps=1.1 q=41.4 size=       0KiB time=00:00:00.24 bitrate=   1.5kbits/s speed=0.00878x elapsed=0:00:27.53    \nframe=   31 fps=1.1 q=41.4 size=       0KiB time=00:00:00.24 bitrate=   1.5kbits/s speed=0.00861x elapsed=0:00:28.05    \nframe=   32 fps=1.1 q=36.4 size=       0KiB time=00:00:00.25 bitrate=   1.4kbits/s speed=0.00875x elapsed=0:00:28.56    \nframe=   32 fps=1.1 q=36.4 size=       0KiB time=00:00:00.25 bitrate=   1.4kbits/s speed=0.0086x elapsed=0:00:29.08    \nframe=   33 fps=1.1 q=40.2 size=       0KiB time=00:00:00.25 bitrate=   1.4kbits/s speed=0.00872x elapsed=0:00:29.61    \nframe=   33 fps=1.1 q=40.2 size=       0KiB time=00:00:00.25 bitrate=   1.4kbits/s speed=0.00857x elapsed=0:00:30.13    \nframe=   34 fps=1.1 q=41.3 size=       0KiB time=00:00:00.26 bitrate=   1.3kbits/s speed=0.0087x elapsed=0:00:30.64    \nframe=   34 fps=1.1 q=41.3 size=       0KiB time=00:00:00.26 bitrate=   1.3kbits/s speed=0.00856x elapsed=0:00:31.17    \nframe=   34 fps=1.1 q=41.3 size=       0KiB time=00:00:00.26 bitrate=   1.3kbits/s speed=0.00842x elapsed=0:00:31.68    \nframe=   34 fps=1.1 q=41.3 size=       0KiB time=00:00:00.26 bitrate=   1.3kbits/s speed=0.00828x elapsed=0:00:32.20    \nframe=   34 fps=1.0 q=41.3 size=       0KiB time=00:00:00.26 bitrate=   1.3kbits/s speed=0.00815x elapsed=0:00:32.72    \nframe=   35 fps=1.1 q=41.3 size=       0KiB time=00:00:00.27 bitrate=   1.3kbits/s speed=0.00827x elapsed=0:00:33.24    \nframe=   35 fps=1.0 q=41.3 size=       0KiB time=00:00:00.27 bitrate=   1.3kbits/s speed=0.00815x elapsed=0:00:33.75    \nframe=   35 fps=1.0 q=41.3 size=       0KiB time=00:00:00.27 bitrate=   1.3kbits/s speed=0.00802x elapsed=0:00:34.27    \nframe=   36 fps=1.0 q=41.3 size=       0KiB time=00:00:00.28 bitrate=   1.2kbits/s speed=0.00814x elapsed=0:00:34.79    \nframe=   37 fps=1.0 q=36.6 size=     256KiB time=00:00:00.29 bitrate=7191.4kbits/s speed=0.00826x elapsed=0:00:35.30    \nframe=   37 fps=1.0 q=36.6 size=     256KiB time=00:00:00.29 bitrate=7191.4kbits/s speed=0.00814x elapsed=0:00:35.82    \nframe=   37 fps=1.0 q=36.6 size=     256KiB time=00:00:00.29 bitrate=7191.4kbits/s speed=0.00802x elapsed=0:00:36.36    \nframe=   38 fps=1.0 q=40.2 size=     256KiB time=00:00:00.30 bitrate=6991.7kbits/s speed=0.00813x elapsed=0:00:36.87    \nframe=   38 fps=1.0 q=40.2 size=     256KiB time=00:00:00.30 bitrate=6991.7kbits/s speed=0.00803x elapsed=0:00:37.38    \nframe=   39 fps=1.0 q=41.3 size=     256KiB time=00:00:00.30 bitrate=6802.7kbits/s speed=0.00813x elapsed=0:00:37.90    \nframe=   39 fps=1.0 q=41.3 size=     256KiB time=00:00:00.30 bitrate=6802.7kbits/s speed=0.00803x elapsed=0:00:38.42    \nframe=   40 fps=1.0 q=41.3 size=     256KiB time=00:00:00.31 bitrate=6623.7kbits/s speed=0.00813x elapsed=0:00:38.94    \nframe=   40 fps=1.0 q=41.3 size=     256KiB time=00:00:00.31 bitrate=6623.7kbits/s speed=0.00803x elapsed=0:00:39.45    \nframe=   41 fps=1.0 q=41.3 size=     256KiB time=00:00:00.32 bitrate=6453.9kbits/s speed=0.00813x elapsed=0:00:39.98    \nframe=   41 fps=1.0 q=41.3 size=     256KiB time=00:00:00.32 bitrate=6453.9kbits/s speed=0.00802x elapsed=0:00:40.49    \nframe=   42 fps=1.0 q=36.6 size=     256KiB time=00:00:00.33 bitrate=6292.5kbits/s speed=0.00813x elapsed=0:00:41.00    \nframe=   42 fps=1.0 q=36.6 size=     256KiB time=00:00:00.33 bitrate=6292.5kbits/s speed=0.00803x elapsed=0:00:41.52    \nframe=   43 fps=1.0 q=40.1 size=     256KiB time=00:00:00.34 bitrate=6139.0kbits/s speed=0.00813x elapsed=0:00:42.03    \nframe=   44 fps=1.0 q=41.3 size=     256KiB time=00:00:00.35 bitrate=5992.9kbits/s speed=0.00822x elapsed=0:00:42.56    \nframe=   44 fps=1.0 q=41.3 size=     256KiB time=00:00:00.35 bitrate=5992.9kbits/s speed=0.00812x elapsed=0:00:43.09    \nframe=   44 fps=1.0 q=41.3 size=     256KiB time=00:00:00.35 bitrate=5992.9kbits/s speed=0.00803x elapsed=0:00:43.60    \nframe=   45 fps=1.0 q=41.2 size=     256KiB time=00:00:00.35 bitrate=5853.5kbits/s speed=0.00812x elapsed=0:00:44.11    \nframe=   45 fps=1.0 q=41.2 size=     256KiB time=00:00:00.35 bitrate=5853.5kbits/s speed=0.00802x elapsed=0:00:44.65    \nframe=   46 fps=1.0 q=41.2 size=     256KiB time=00:00:00.36 bitrate=5720.5kbits/s speed=0.00812x elapsed=0:00:45.17    \nframe=   46 fps=1.0 q=41.2 size=     256KiB time=00:00:00.36 bitrate=5720.5kbits/s speed=0.00802x elapsed=0:00:45.70    \nframe=   47 fps=1.0 q=36.6 size=     256KiB time=00:00:00.37 bitrate=5593.3kbits/s speed=0.00811x elapsed=0:00:46.22    \nframe=   47 fps=1.0 q=36.6 size=     256KiB time=00:00:00.37 bitrate=5593.3kbits/s speed=0.00802x elapsed=0:00:46.75    \nframe=   48 fps=1.0 q=40.1 size=     256KiB time=00:00:00.38 bitrate=5471.8kbits/s speed=0.00811x elapsed=0:00:47.28    \nframe=   48 fps=1.0 q=40.1 size=     256KiB time=00:00:00.38 bitrate=5471.8kbits/s speed=0.00802x elapsed=0:00:47.79    \nframe=   49 fps=1.0 q=41.2 size=     256KiB time=00:00:00.39 bitrate=5355.3kbits/s speed=0.0081x elapsed=0:00:48.32    \nframe=   49 fps=1.0 q=41.2 size=     256KiB time=00:00:00.39 bitrate=5355.3kbits/s speed=0.00802x elapsed=0:00:48.84    \nframe=   49 fps=1.0 q=41.2 size=     256KiB time=00:00:00.39 bitrate=5355.3kbits/s speed=0.00794x elapsed=0:00:49.35    \nframe=   49 fps=1.0 q=41.2 size=     256KiB time=00:00:00.39 bitrate=5355.3kbits/s speed=0.00785x elapsed=0:00:49.86    \nframe=   50 fps=1.0 q=41.2 size=     256KiB time=00:00:00.40 bitrate=5243.8kbits/s speed=0.00794x elapsed=0:00:50.39    \nframe=   50 fps=1.0 q=41.2 size=     256KiB time=00:00:00.40 bitrate=5243.8kbits/s speed=0.00785x elapsed=0:00:50.93    \nframe=   50 fps=1.0 q=41.2 size=     256KiB time=00:00:00.40 bitrate=5243.8kbits/s speed=0.00777x elapsed=0:00:51.46    \nframe=   50 fps=1.0 q=41.2 size=     256KiB time=00:00:00.40 bitrate=5243.8kbits/s speed=0.0077x elapsed=0:00:51.98    \nframe=   51 fps=1.0 q=41.3 size=     256KiB time=00:00:00.40 bitrate=5136.7kbits/s speed=0.00777x elapsed=0:00:52.51    \nframe=   51 fps=1.0 q=41.3 size=     256KiB time=00:00:00.40 bitrate=5136.7kbits/s speed=0.0077x elapsed=0:00:53.03    \nframe=   51 fps=1.0 q=41.3 size=     256KiB time=00:00:00.40 bitrate=5136.7kbits/s speed=0.00762x elapsed=0:00:53.56    \nframe=   51 fps=0.9 q=41.3 size=     256KiB time=00:00:00.40 bitrate=5136.7kbits/s speed=0.00755x elapsed=0:00:54.08    \nframe=   52 fps=1.0 q=36.5 size=     256KiB time=00:00:00.41 bitrate=5034.0kbits/s speed=0.00763x elapsed=0:00:54.62    \nframe=   52 fps=0.9 q=36.5 size=     256KiB time=00:00:00.41 bitrate=5034.0kbits/s speed=0.00756x elapsed=0:00:55.12    \nframe=   53 fps=1.0 q=40.0 size=     256KiB time=00:00:00.42 bitrate=4935.3kbits/s speed=0.00764x elapsed=0:00:55.65    \nframe=   53 fps=0.9 q=40.0 size=     256KiB time=00:00:00.42 bitrate=4935.3kbits/s speed=0.00757x elapsed=0:00:56.16    \nframe=   54 fps=1.0 q=41.2 size=     256KiB time=00:00:00.43 bitrate=4840.4kbits/s speed=0.00764x elapsed=0:00:56.68    \nframe=   54 fps=0.9 q=41.2 size=     256KiB time=00:00:00.43 bitrate=4840.4kbits/s speed=0.00757x elapsed=0:00:57.21    \nframe=   55 fps=1.0 q=41.1 size=     256KiB time=00:00:00.44 bitrate=4749.1kbits/s speed=0.00765x elapsed=0:00:57.73    \nframe=   55 fps=0.9 q=41.1 size=     256KiB time=00:00:00.44 bitrate=4749.1kbits/s speed=0.00758x elapsed=0:00:58.25    \nframe=   55 fps=0.9 q=41.1 size=     256KiB time=00:00:00.44 bitrate=4749.1kbits/s speed=0.00751x elapsed=0:00:58.77    \nframe=   56 fps=0.9 q=41.1 size=     256KiB time=00:00:00.45 bitrate=4661.1kbits/s speed=0.00759x elapsed=0:00:59.29    \nframe=   56 fps=0.9 q=41.1 size=     256KiB time=00:00:00.45 bitrate=4661.1kbits/s speed=0.00752x elapsed=0:00:59.81    \nframe=   56 fps=0.9 q=41.1 size=     256KiB time=00:00:00.45 bitrate=4661.1kbits/s speed=0.00746x elapsed=0:01:00.32    \nframe=   57 fps=0.9 q=36.3 size=     256KiB time=00:00:00.45 bitrate=4576.4kbits/s speed=0.00753x elapsed=0:01:00.83    \nframe=   57 fps=0.9 q=36.3 size=     256KiB time=00:00:00.45 bitrate=4576.4kbits/s speed=0.00747x elapsed=0:01:01.36    \nframe=   58 fps=0.9 q=40.0 size=     256KiB time=00:00:00.46 bitrate=4494.6kbits/s speed=0.00754x elapsed=0:01:01.88    \nframe=   59 fps=0.9 q=41.1 size=     256KiB time=00:00:00.47 bitrate=4415.8kbits/s speed=0.00761x elapsed=0:01:02.42    \nframe=   59 fps=0.9 q=41.1 size=     256KiB time=00:00:00.47 bitrate=4415.8kbits/s speed=0.00754x elapsed=0:01:02.98    \nframe=   59 fps=0.9 q=41.1 size=     256KiB time=00:00:00.47 bitrate=4415.8kbits/s speed=0.00748x elapsed=0:01:03.50    \nframe=   60 fps=0.9 q=41.1 size=     256KiB time=00:00:00.48 bitrate=4339.7kbits/s speed=0.00755x elapsed=0:01:04.03    \nframe=   60 fps=0.9 q=41.1 size=     256KiB time=00:00:00.48 bitrate=4339.7kbits/s speed=0.00749x elapsed=0:01:04.56    \nframe=   60 fps=0.9 q=41.1 size=     256KiB time=00:00:00.48 bitrate=4339.7kbits/s speed=0.00743x elapsed=0:01:05.06    \nframe=   61 fps=0.9 q=41.1 size=     256KiB time=00:00:00.49 bitrate=4266.1kbits/s speed=0.0075x elapsed=0:01:05.59    \nframe=   61 fps=0.9 q=41.1 size=     256KiB time=00:00:00.49 bitrate=4266.1kbits/s speed=0.00744x elapsed=0:01:06.12    \nframe=   62 fps=0.9 q=35.7 size=     256KiB time=00:00:00.50 bitrate=4195.0kbits/s speed=0.0075x elapsed=0:01:06.64    \nframe=   62 fps=0.9 q=35.7 size=     256KiB time=00:00:00.50 bitrate=4195.0kbits/s speed=0.00744x elapsed=0:01:07.17    \nframe=   63 fps=0.9 q=39.8 size=     256KiB time=00:00:00.50 bitrate=4126.2kbits/s speed=0.00751x elapsed=0:01:07.70    \nframe=   63 fps=0.9 q=39.8 size=     256KiB time=00:00:00.50 bitrate=4126.2kbits/s speed=0.00745x elapsed=0:01:08.21    \nframe=   64 fps=0.9 q=41.0 size=     256KiB time=00:00:00.51 bitrate=4059.7kbits/s speed=0.00752x elapsed=0:01:08.74    \nframe=   64 fps=0.9 q=41.0 size=     256KiB time=00:00:00.51 bitrate=4059.7kbits/s speed=0.00746x elapsed=0:01:09.25    \nframe=   64 fps=0.9 q=41.0 size=     256KiB time=00:00:00.51 bitrate=4059.7kbits/s speed=0.0074x elapsed=0:01:09.78    \nframe=   65 fps=0.9 q=41.0 size=     256KiB time=00:00:00.52 bitrate=3995.2kbits/s speed=0.00747x elapsed=0:01:10.31    \nframe=   65 fps=0.9 q=41.0 size=     256KiB time=00:00:00.52 bitrate=3995.2kbits/s speed=0.00741x elapsed=0:01:10.83    \nframe=   65 fps=0.9 q=41.0 size=     256KiB time=00:00:00.52 bitrate=3995.2kbits/s speed=0.00736x elapsed=0:01:11.36    \nframe=   66 fps=0.9 q=41.0 size=     256KiB time=00:00:00.53 bitrate=3932.8kbits/s speed=0.00742x elapsed=0:01:11.89    \nframe=   66 fps=0.9 q=41.0 size=     256KiB time=00:00:00.53 bitrate=3932.8kbits/s speed=0.00736x elapsed=0:01:12.41    \nframe=   67 fps=0.9 q=35.8 size=     256KiB time=00:00:00.54 bitrate=3872.3kbits/s speed=0.00742x elapsed=0:01:12.95    \nframe=   68 fps=0.9 q=39.8 size=     256KiB time=00:00:00.55 bitrate=3813.6kbits/s speed=0.00748x elapsed=0:01:13.50    \nframe=   68 fps=0.9 q=39.8 size=     256KiB time=00:00:00.55 bitrate=3813.6kbits/s speed=0.00743x elapsed=0:01:14.04    \nframe=   68 fps=0.9 q=39.8 size=     256KiB time=00:00:00.55 bitrate=3813.6kbits/s speed=0.00738x elapsed=0:01:14.55    \nframe=   69 fps=0.9 q=41.0 size=     512KiB time=00:00:00.55 bitrate=7512.8kbits/s speed=0.00744x elapsed=0:01:15.09    \nframe=   69 fps=0.9 q=41.0 size=     512KiB time=00:00:00.55 bitrate=7512.8kbits/s speed=0.00738x elapsed=0:01:15.61    \nframe=   70 fps=0.9 q=40.9 size=     512KiB time=00:00:00.56 bitrate=7402.3kbits/s speed=0.00744x elapsed=0:01:16.12    \nframe=   71 fps=0.9 q=40.9 size=     512KiB time=00:00:00.57 bitrate=7295.1kbits/s speed=0.0075x elapsed=0:01:16.64    \nframe=   71 fps=0.9 q=40.9 size=     512KiB time=00:00:00.57 bitrate=7295.1kbits/s speed=0.00745x elapsed=0:01:17.16    \nframe=   72 fps=0.9 q=35.6 size=     512KiB time=00:00:00.58 bitrate=7190.8kbits/s speed=0.00751x elapsed=0:01:17.67    \nframe=   72 fps=0.9 q=35.6 size=     512KiB time=00:00:00.58 bitrate=7190.8kbits/s speed=0.00746x elapsed=0:01:18.21    \nframe=   73 fps=0.9 q=39.7 size=     512KiB time=00:00:00.59 bitrate=7089.6kbits/s speed=0.00751x elapsed=0:01:18.73    \nframe=   74 fps=0.9 q=40.9 size=     512KiB time=00:00:00.60 bitrate=6991.1kbits/s speed=0.00757x elapsed=0:01:19.25    \nframe=   74 fps=0.9 q=40.9 size=     512KiB time=00:00:00.60 bitrate=6991.1kbits/s speed=0.00752x elapsed=0:01:19.77    \nframe=   74 fps=0.9 q=40.9 size=     512KiB time=00:00:00.60 bitrate=6991.1kbits/s speed=0.00747x elapsed=0:01:20.29    \nframe=   75 fps=0.9 q=40.9 size=     512KiB time=00:00:00.60 bitrate=6895.3kbits/s speed=0.00753x elapsed=0:01:20.82    \nframe=   75 fps=0.9 q=40.9 size=     512KiB time=00:00:00.60 bitrate=6895.3kbits/s speed=0.00748x elapsed=0:01:21.33    \nframe=   75 fps=0.9 q=40.9 size=     512KiB time=00:00:00.60 bitrate=6895.3kbits/s speed=0.00743x elapsed=0:01:21.87    \nframe=   76 fps=0.9 q=40.8 size=     512KiB time=00:00:00.61 bitrate=6802.1kbits/s speed=0.00748x elapsed=0:01:22.42    \nframe=   76 fps=0.9 q=40.8 size=     512KiB time=00:00:00.61 bitrate=6802.1kbits/s speed=0.00743x elapsed=0:01:22.99    \nframe=   76 fps=0.9 q=40.8 size=     512KiB time=00:00:00.61 bitrate=6802.1kbits/s speed=0.00738x elapsed=0:01:23.51    \nframe=   77 fps=0.9 q=35.2 size=     512KiB time=00:00:00.62 bitrate=6711.4kbits/s speed=0.00744x elapsed=0:01:24.05    \nframe=   77 fps=0.9 q=35.2 size=     512KiB time=00:00:00.62 bitrate=6711.4kbits/s speed=0.00739x elapsed=0:01:24.56    \nframe=   77 fps=0.9 q=35.2 size=     512KiB time=00:00:00.62 bitrate=6711.4kbits/s speed=0.00734x elapsed=0:01:25.09    \nframe=   78 fps=0.9 q=39.3 size=     512KiB time=00:00:00.63 bitrate=6623.1kbits/s speed=0.0074x elapsed=0:01:25.61    \nframe=   78 fps=0.9 q=39.3 size=     512KiB time=00:00:00.63 bitrate=6623.1kbits/s speed=0.00735x elapsed=0:01:26.13    \nframe=   79 fps=0.9 q=40.8 size=     512KiB time=00:00:00.64 bitrate=6537.1kbits/s speed=0.0074x elapsed=0:01:26.66    \nframe=   79 fps=0.9 q=40.8 size=     512KiB time=00:00:00.64 bitrate=6537.1kbits/s speed=0.00736x elapsed=0:01:27.19    \nframe=   80 fps=0.9 q=40.7 size=     512KiB time=00:00:00.65 bitrate=6453.3kbits/s speed=0.00741x elapsed=0:01:27.71    \nframe=   80 fps=0.9 q=40.7 size=     512KiB time=00:00:00.65 bitrate=6453.3kbits/s speed=0.00737x elapsed=0:01:28.23    \nframe=   80 fps=0.9 q=40.7 size=     512KiB time=00:00:00.65 bitrate=6453.3kbits/s speed=0.00732x elapsed=0:01:28.74    \nframe=   80 fps=0.9 q=40.7 size=     512KiB time=00:00:00.65 bitrate=6453.3kbits/s speed=0.00728x elapsed=0:01:29.28    \nframe=   81 fps=0.9 q=40.7 size=     512KiB time=00:00:00.65 bitrate=6371.6kbits/s speed=0.00733x elapsed=0:01:29.80    \nframe=   81 fps=0.9 q=40.7 size=     512KiB time=00:00:00.65 bitrate=6371.6kbits/s speed=0.00729x elapsed=0:01:30.32    \nframe=   82 fps=0.9 q=34.5 size=     512KiB time=00:00:00.66 bitrate=6292.0kbits/s speed=0.00734x elapsed=0:01:30.83    \nframe=   82 fps=0.9 q=34.5 size=     512KiB time=00:00:00.66 bitrate=6292.0kbits/s speed=0.0073x elapsed=0:01:31.35    \nframe=   83 fps=0.9 q=39.1 size=     512KiB time=00:00:00.67 bitrate=6214.3kbits/s speed=0.00735x elapsed=0:01:31.87    \nframe=   84 fps=0.9 q=40.2 size=     512KiB time=00:00:00.68 bitrate=6138.5kbits/s speed=0.0074x elapsed=0:01:32.38    \nframe=   84 fps=0.9 q=40.2 size=     512KiB time=00:00:00.68 bitrate=6138.5kbits/s speed=0.00736x elapsed=0:01:32.90    \nframe=   84 fps=0.9 q=40.2 size=     512KiB time=00:00:00.68 bitrate=6138.5kbits/s speed=0.00731x elapsed=0:01:33.43    \nframe=   84 fps=0.9 q=40.2 size=     512KiB time=00:00:00.68 bitrate=6138.5kbits/s speed=0.00727x elapsed=0:01:33.96    \nframe=   85 fps=0.9 q=40.2 size=     512KiB time=00:00:00.69 bitrate=6064.6kbits/s speed=0.00732x elapsed=0:01:34.47    \nframe=   85 fps=0.9 q=40.2 size=     512KiB time=00:00:00.69 bitrate=6064.6kbits/s speed=0.00728x elapsed=0:01:35.02    \nframe=   86 fps=0.9 q=40.1 size=     512KiB time=00:00:00.70 bitrate=5992.4kbits/s speed=0.00733x elapsed=0:01:35.55    \nframe=   87 fps=0.9 q=35.0 size=     512KiB time=00:00:00.70 bitrate=5921.9kbits/s speed=0.00737x elapsed=0:01:36.07    \nframe=   87 fps=0.9 q=35.0 size=     512KiB time=00:00:00.70 bitrate=5921.9kbits/s speed=0.00733x elapsed=0:01:36.58    \nframe=   88 fps=0.9 q=39.0 size=     512KiB time=00:00:00.71 bitrate=5853.0kbits/s speed=0.00738x elapsed=0:01:37.12    \nframe=   88 fps=0.9 q=39.0 size=     512KiB time=00:00:00.71 bitrate=5853.0kbits/s speed=0.00734x elapsed=0:01:37.65    \nframe=   88 fps=0.9 q=39.0 size=     512KiB time=00:00:00.71 bitrate=5853.0kbits/s speed=0.0073x elapsed=0:01:38.16    \nframe=   89 fps=0.9 q=40.2 size=     512KiB time=00:00:00.72 bitrate=5785.7kbits/s speed=0.00735x elapsed=0:01:38.68    \nframe=   89 fps=0.9 q=40.2 size=     512KiB time=00:00:00.72 bitrate=5785.7kbits/s speed=0.00731x elapsed=0:01:39.21    \nframe=   89 fps=0.9 q=40.2 size=     512KiB time=00:00:00.72 bitrate=5785.7kbits/s speed=0.00727x elapsed=0:01:39.74    \nframe=   90 fps=0.9 q=40.1 size=     512KiB time=00:00:00.73 bitrate=5720.0kbits/s speed=0.00731x elapsed=0:01:40.26    \nframe=   90 fps=0.9 q=40.1 size=     512KiB time=00:00:00.73 bitrate=5720.0kbits/s speed=0.00727x elapsed=0:01:40.80    \nframe=   90 fps=0.9 q=40.1 size=     512KiB time=00:00:00.73 bitrate=5720.0kbits/s speed=0.00724x elapsed=0:01:41.32    \nframe=   91 fps=0.9 q=40.1 size=     512KiB time=00:00:00.74 bitrate=5655.7kbits/s speed=0.00728x elapsed=0:01:41.83    \nframe=   92 fps=0.9 q=34.9 size=     512KiB time=00:00:00.75 bitrate=5592.9kbits/s speed=0.00732x elapsed=0:01:42.38    \nframe=   93 fps=0.9 q=38.9 size=     512KiB time=00:00:00.75 bitrate=5531.4kbits/s speed=0.00737x elapsed=0:01:42.90    \nframe=   93 fps=0.9 q=38.9 size=     512KiB time=00:00:00.75 bitrate=5531.4kbits/s speed=0.00733x elapsed=0:01:43.43    \nframe=   94 fps=0.9 q=40.2 size=     512KiB time=00:00:00.76 bitrate=5471.3kbits/s speed=0.00738x elapsed=0:01:43.95    \nframe=   94 fps=0.9 q=40.2 size=     512KiB time=00:00:00.76 bitrate=5471.3kbits/s speed=0.00734x elapsed=0:01:44.49    \nframe=   94 fps=0.9 q=40.2 size=     512KiB time=00:00:00.76 bitrate=5471.3kbits/s speed=0.0073x elapsed=0:01:45.01    \nframe=   94 fps=0.9 q=40.2 size=     512KiB time=00:00:00.76 bitrate=5471.3kbits/s speed=0.00726x elapsed=0:01:45.55    \nframe=   94 fps=0.9 q=40.2 size=     512KiB time=00:00:00.76 bitrate=5471.3kbits/s speed=0.00723x elapsed=0:01:46.09    \nframe=   94 fps=0.9 q=40.2 size=     512KiB time=00:00:00.76 bitrate=5471.3kbits/s speed=0.00719x elapsed=0:01:46.61    \nframe=   94 fps=0.9 q=40.2 size=     512KiB time=00:00:00.76 bitrate=5471.3kbits/s speed=0.00715x elapsed=0:01:47.15    \nframe=   94 fps=0.9 q=40.2 size=     512KiB time=00:00:00.76 bitrate=5471.3kbits/s speed=0.00712x elapsed=0:01:47.71    \nframe=   95 fps=0.9 q=40.0 size=     512KiB time=00:00:00.77 bitrate=5412.5kbits/s speed=0.00716x elapsed=0:01:48.26    \nframe=   95 fps=0.9 q=40.0 size=     512KiB time=00:00:00.77 bitrate=5412.5kbits/s speed=0.00712x elapsed=0:01:48.83    \nframe=   95 fps=0.9 q=40.0 size=     512KiB time=00:00:00.77 bitrate=5412.5kbits/s speed=0.00709x elapsed=0:01:49.35    \nframe=   95 fps=0.9 q=40.0 size=     512KiB time=00:00:00.77 bitrate=5412.5kbits/s speed=0.00705x elapsed=0:01:49.87    \nframe=   96 fps=0.9 q=40.1 size=     512KiB time=00:00:00.78 bitrate=5354.9kbits/s speed=0.00709x elapsed=0:01:50.49    \nframe=   96 fps=0.9 q=40.1 size=     512KiB time=00:00:00.78 bitrate=5354.9kbits/s speed=0.00705x elapsed=0:01:51.05    \nframe=   96 fps=0.9 q=40.1 size=     512KiB time=00:00:00.78 bitrate=5354.9kbits/s speed=0.00702x elapsed=0:01:51.59    \nframe=   96 fps=0.9 q=40.1 size=     512KiB time=00:00:00.78 bitrate=5354.9kbits/s speed=0.00698x elapsed=0:01:52.18    \nframe=   96 fps=0.9 q=40.1 size=     512KiB time=00:00:00.78 bitrate=5354.9kbits/s speed=0.00695x elapsed=0:01:52.71    \nframe=   96 fps=0.8 q=40.1 size=     512KiB time=00:00:00.78 bitrate=5354.9kbits/s speed=0.00692x elapsed=0:01:53.27    \nframe=   97 fps=0.9 q=34.1 size=     512KiB time=00:00:00.79 bitrate=5298.5kbits/s speed=0.00695x elapsed=0:01:53.84    \nframe=   98 fps=0.9 q=38.8 size=     512KiB time=00:00:00.79 bitrate=5298.5kbits/s speed=0.00692x elapsed=0:01:54.38    \nframe=   98 fps=0.9 q=38.8 size=     512KiB time=00:00:00.80 bitrate=5243.3kbits/s speed=0.00696x elapsed=0:01:54.96    \nframe=   98 fps=0.8 q=38.8 size=     512KiB time=00:00:00.80 bitrate=5243.3kbits/s speed=0.00692x elapsed=0:01:55.56    \nframe=   99 fps=0.9 q=39.9 size=     512KiB time=00:00:00.80 bitrate=5189.3kbits/s speed=0.00696x elapsed=0:01:56.11    \nframe=   99 fps=0.8 q=39.9 size=     512KiB time=00:00:00.80 bitrate=5189.3kbits/s speed=0.00693x elapsed=0:01:56.63    \nframe=   99 fps=0.8 q=39.9 size=     512KiB time=00:00:00.80 bitrate=5189.3kbits/s speed=0.0069x elapsed=0:01:57.17    \nframe=   99 fps=0.8 q=39.9 size=     512KiB time=00:00:00.80 bitrate=5189.3kbits/s speed=0.00687x elapsed=0:01:57.70    \nframe=  100 fps=0.8 q=39.9 size=     512KiB time=00:00:00.81 bitrate=5136.3kbits/s speed=0.00691x elapsed=0:01:58.21    \nframe=  100 fps=0.8 q=39.9 size=     512KiB time=00:00:00.81 bitrate=5136.3kbits/s speed=0.00688x elapsed=0:01:58.72    \nframe=  101 fps=0.8 q=39.9 size=     768KiB time=00:00:00.82 bitrate=7626.4kbits/s speed=0.00692x elapsed=0:01:59.26    \nframe=  101 fps=0.8 q=39.9 size=     768KiB time=00:00:00.82 bitrate=7626.4kbits/s speed=0.00689x elapsed=0:01:59.77    \nframe=  102 fps=0.8 q=34.1 size=     768KiB time=00:00:00.83 bitrate=7550.2kbits/s speed=0.00693x elapsed=0:02:00.29    \nframe=  102 fps=0.8 q=34.1 size=     768KiB time=00:00:00.83 bitrate=7550.2kbits/s speed=0.0069x elapsed=0:02:00.82    \nframe=  103 fps=0.8 q=38.7 size=     768KiB time=00:00:00.84 bitrate=7475.4kbits/s speed=0.00694x elapsed=0:02:01.35    \nframe=  103 fps=0.8 q=38.7 size=     768KiB time=00:00:00.84 bitrate=7475.4kbits/s speed=0.00691x elapsed=0:02:01.87    \nframe=  104 fps=0.8 q=39.7 size=     768KiB time=00:00:00.85 bitrate=7402.1kbits/s speed=0.00695x elapsed=0:02:02.38    \nframe=  104 fps=0.8 q=39.7 size=     768KiB time=00:00:00.85 bitrate=7402.1kbits/s speed=0.00692x elapsed=0:02:02.91    \nframe=  104 fps=0.8 q=39.7 size=     768KiB time=00:00:00.85 bitrate=7402.1kbits/s speed=0.00689x elapsed=0:02:03.44    \nframe=  105 fps=0.8 q=39.7 size=     768KiB time=00:00:00.85 bitrate=7330.3kbits/s speed=0.00692x elapsed=0:02:03.97    \nframe=  105 fps=0.8 q=39.7 size=     768KiB time=00:00:00.85 bitrate=7330.3kbits/s speed=0.00689x elapsed=0:02:04.53    \nframe=  106 fps=0.8 q=39.6 size=     768KiB time=00:00:00.86 bitrate=7259.8kbits/s speed=0.00693x elapsed=0:02:05.10    \nframe=  106 fps=0.8 q=39.6 size=     768KiB time=00:00:00.86 bitrate=7259.8kbits/s speed=0.0069x elapsed=0:02:05.65    \nframe=  107 fps=0.8 q=33.4 size=     768KiB time=00:00:00.87 bitrate=7190.6kbits/s speed=0.00693x elapsed=0:02:06.19    \nframe=  107 fps=0.8 q=33.4 size=     768KiB time=00:00:00.87 bitrate=7190.6kbits/s speed=0.0069x elapsed=0:02:06.79    \nframe=  108 fps=0.8 q=38.1 size=     768KiB time=00:00:00.88 bitrate=7122.8kbits/s speed=0.00694x elapsed=0:02:07.33    \nframe=  108 fps=0.8 q=38.1 size=     768KiB time=00:00:00.88 bitrate=7122.8kbits/s speed=0.00691x elapsed=0:02:07.86    \nframe=  108 fps=0.8 q=38.1 size=     768KiB time=00:00:00.88 bitrate=7122.8kbits/s speed=0.00688x elapsed=0:02:08.42    \nframe=  109 fps=0.8 q=39.2 size=     768KiB time=00:00:00.89 bitrate=7056.2kbits/s speed=0.00691x elapsed=0:02:08.95    \nframe=  110 fps=0.8 q=39.2 size=     768KiB time=00:00:00.90 bitrate=6990.9kbits/s speed=0.00695x elapsed=0:02:09.50    \nframe=  111 fps=0.9 q=39.2 size=     768KiB time=00:00:00.90 bitrate=6926.8kbits/s speed=0.00698x elapsed=0:02:10.04    \nframe=  111 fps=0.8 q=39.2 size=     768KiB time=00:00:00.90 bitrate=6926.8kbits/s speed=0.00696x elapsed=0:02:10.59    \nframe=  111 fps=0.8 q=39.2 size=     768KiB time=00:00:00.90 bitrate=6926.8kbits/s speed=0.00693x elapsed=0:02:11.13    \nframe=  111 fps=0.8 q=39.2 size=     768KiB time=00:00:00.90 bitrate=6926.8kbits/s speed=0.0069x elapsed=0:02:11.69    \nframe=  111 fps=0.8 q=39.2 size=     768KiB time=00:00:00.90 bitrate=6926.8kbits/s speed=0.00687x elapsed=0:02:12.27    \nframe=  112 fps=0.8 q=33.8 size=     768KiB time=00:00:00.91 bitrate=6863.8kbits/s speed=0.0069x elapsed=0:02:12.81    \nframe=  112 fps=0.8 q=33.8 size=     768KiB time=00:00:00.91 bitrate=6863.8kbits/s speed=0.00687x elapsed=0:02:13.36    \nframe=  112 fps=0.8 q=33.8 size=     768KiB time=00:00:00.91 bitrate=6863.8kbits/s speed=0.00685x elapsed=0:02:13.90    \nframe=  112 fps=0.8 q=33.8 size=     768KiB time=00:00:00.91 bitrate=6863.8kbits/s speed=0.00682x elapsed=0:02:14.44    \nframe=  112 fps=0.8 q=33.8 size=     768KiB time=00:00:00.91 bitrate=6863.8kbits/s speed=0.00679x elapsed=0:02:15.08    \nframe=  112 fps=0.8 q=33.8 size=     768KiB time=00:00:00.91 bitrate=6863.8kbits/s speed=0.00676x elapsed=0:02:15.63    \nframe=  113 fps=0.8 q=38.0 size=     768KiB time=00:00:00.92 bitrate=6802.0kbits/s speed=0.00679x elapsed=0:02:16.17    \nframe=  113 fps=0.8 q=38.0 size=     768KiB time=00:00:00.92 bitrate=6802.0kbits/s speed=0.00676x elapsed=0:02:16.73    \nframe=  114 fps=0.8 q=39.1 size=     768KiB time=00:00:00.93 bitrate=6741.2kbits/s speed=0.0068x elapsed=0:02:17.32    \nframe=  114 fps=0.8 q=39.1 size=     768KiB time=00:00:00.93 bitrate=6741.2kbits/s speed=0.00677x elapsed=0:02:17.86    \nframe=  114 fps=0.8 q=39.1 size=     768KiB time=00:00:00.93 bitrate=6741.2kbits/s speed=0.00674x elapsed=0:02:18.46    \nframe=  114 fps=0.8 q=39.1 size=     768KiB time=00:00:00.93 bitrate=6741.2kbits/s speed=0.00671x elapsed=0:02:19.07    \nframe=  114 fps=0.8 q=39.1 size=     768KiB time=00:00:00.93 bitrate=6741.2kbits/s speed=0.00668x elapsed=0:02:19.68    \nframe=  114 fps=0.8 q=39.1 size=     768KiB time=00:00:00.93 bitrate=6741.2kbits/s speed=0.00665x elapsed=0:02:20.26    \nframe=  115 fps=0.8 q=39.1 size=     768KiB time=00:00:00.94 bitrate=6681.6kbits/s speed=0.00669x elapsed=0:02:20.83    \nframe=  115 fps=0.8 q=39.1 size=     768KiB time=00:00:00.94 bitrate=6681.6kbits/s speed=0.00666x elapsed=0:02:21.39    \nframe=  115 fps=0.8 q=39.1 size=     768KiB time=00:00:00.94 bitrate=6681.6kbits/s speed=0.00663x elapsed=0:02:21.94    \nframe=  115 fps=0.8 q=39.1 size=     768KiB time=00:00:00.94 bitrate=6681.6kbits/s speed=0.00661x elapsed=0:02:22.49    \nframe=  116 fps=0.8 q=39.1 size=     768KiB time=00:00:00.95 bitrate=6623.0kbits/s speed=0.00664x elapsed=0:02:23.00    \nframe=  116 fps=0.8 q=39.1 size=     768KiB time=00:00:00.95 bitrate=6623.0kbits/s speed=0.00662x elapsed=0:02:23.53    \nframe=  117 fps=0.8 q=33.3 size=     768KiB time=00:00:00.95 bitrate=6565.4kbits/s speed=0.00665x elapsed=0:02:24.07    \nframe=  117 fps=0.8 q=33.3 size=     768KiB time=00:00:00.95 bitrate=6565.4kbits/s speed=0.00663x elapsed=0:02:24.60    \nframe=  118 fps=0.8 q=37.8 size=     768KiB time=00:00:00.96 bitrate=6508.8kbits/s speed=0.00666x elapsed=0:02:25.11    \nframe=  118 fps=0.8 q=37.8 size=     768KiB time=00:00:00.96 bitrate=6508.8kbits/s speed=0.00664x elapsed=0:02:25.64    \nframe=  119 fps=0.8 q=38.9 size=     768KiB time=00:00:00.97 bitrate=6453.1kbits/s speed=0.00667x elapsed=0:02:26.20    \nframe=  119 fps=0.8 q=38.9 size=     768KiB time=00:00:00.97 bitrate=6453.1kbits/s speed=0.00665x elapsed=0:02:26.71    \nframe=  119 fps=0.8 q=38.9 size=     768KiB time=00:00:00.97 bitrate=6453.1kbits/s speed=0.00662x elapsed=0:02:27.23    \nframe=  120 fps=0.8 q=38.7 size=     768KiB time=00:00:00.98 bitrate=6398.5kbits/s speed=0.00665x elapsed=0:02:27.77    \nframe=  120 fps=0.8 q=38.7 size=     768KiB time=00:00:00.98 bitrate=6398.5kbits/s speed=0.00663x elapsed=0:02:28.31    \nframe=  121 fps=0.8 q=38.8 size=     768KiB time=00:00:00.99 bitrate=6344.7kbits/s speed=0.00666x elapsed=0:02:28.85    \nframe=  122 fps=0.8 q=32.5 size=     768KiB time=00:00:01.00 bitrate=6291.8kbits/s speed=0.00669x elapsed=0:02:29.37    \nframe=  122 fps=0.8 q=32.5 size=     768KiB time=00:00:01.00 bitrate=6291.8kbits/s speed=0.00667x elapsed=0:02:29.90    \nframe=  123 fps=0.8 q=37.7 size=     768KiB time=00:00:01.00 bitrate=6239.8kbits/s speed=0.0067x elapsed=0:02:30.42    \nframe=  124 fps=0.8 q=38.9 size=     768KiB time=00:00:01.01 bitrate=6188.7kbits/s speed=0.00674x elapsed=0:02:30.94    \nframe=  124 fps=0.8 q=38.9 size=     768KiB time=00:00:01.01 bitrate=6188.7kbits/s speed=0.00671x elapsed=0:02:31.48    \nframe=  125 fps=0.8 q=38.8 size=     768KiB time=00:00:01.02 bitrate=6138.3kbits/s speed=0.00674x elapsed=0:02:31.98    \nframe=  126 fps=0.8 q=38.9 size=     768KiB time=00:00:01.02 bitrate=6138.3kbits/s speed=0.00672x elapsed=0:02:32.50    \nframe=  126 fps=0.8 q=38.9 size=     768KiB time=00:00:01.03 bitrate=6088.8kbits/s speed=0.00675x elapsed=0:02:33.02    \nframe=  126 fps=0.8 q=38.9 size=     768KiB time=00:00:01.03 bitrate=6088.8kbits/s speed=0.00673x elapsed=0:02:33.53    \nframe=  127 fps=0.8 q=32.5 size=     768KiB time=00:00:01.04 bitrate=6040.1kbits/s speed=0.00676x elapsed=0:02:34.05    \nframe=  127 fps=0.8 q=32.5 size=     768KiB time=00:00:01.04 bitrate=6040.1kbits/s speed=0.00674x elapsed=0:02:34.56    \nframe=  127 fps=0.8 q=32.5 size=     768KiB time=00:00:01.04 bitrate=6040.1kbits/s speed=0.00672x elapsed=0:02:35.08    \nframe=  128 fps=0.8 q=37.2 size=     768KiB time=00:00:01.05 bitrate=5992.2kbits/s speed=0.00675x elapsed=0:02:35.60    \nframe=  128 fps=0.8 q=37.2 size=     768KiB time=00:00:01.05 bitrate=5992.2kbits/s speed=0.00672x elapsed=0:02:36.13    \nframe=  129 fps=0.8 q=38.1 size=     768KiB time=00:00:01.05 bitrate=5945.0kbits/s speed=0.00676x elapsed=0:02:36.65    \nframe=  129 fps=0.8 q=38.1 size=     768KiB time=00:00:01.05 bitrate=5945.0kbits/s speed=0.00673x elapsed=0:02:37.16    \nframe=  129 fps=0.8 q=38.1 size=     768KiB time=00:00:01.05 bitrate=5945.0kbits/s speed=0.00671x elapsed=0:02:37.68    \nframe=  130 fps=0.8 q=38.0 size=     768KiB time=00:00:01.06 bitrate=5898.6kbits/s speed=0.00674x elapsed=0:02:38.22    \nframe=  130 fps=0.8 q=38.0 size=     768KiB time=00:00:01.06 bitrate=5898.6kbits/s speed=0.00672x elapsed=0:02:38.76    \nframe=  131 fps=0.8 q=38.2 size=     768KiB time=00:00:01.07 bitrate=5852.8kbits/s speed=0.00675x elapsed=0:02:39.28    \nframe=  132 fps=0.8 q=32.1 size=     768KiB time=00:00:01.08 bitrate=5807.8kbits/s speed=0.00678x elapsed=0:02:39.80    \nframe=  132 fps=0.8 q=32.1 size=     768KiB time=00:00:01.08 bitrate=5807.8kbits/s speed=0.00676x elapsed=0:02:40.34    \nframe=  133 fps=0.8 q=36.9 size=    1024KiB time=00:00:01.09 bitrate=7684.5kbits/s speed=0.00678x elapsed=0:02:40.89    \nframe=  134 fps=0.8 q=38.0 size=    1024KiB time=00:00:01.10 bitrate=7626.3kbits/s speed=0.00681x elapsed=0:02:41.42    \nframe=  134 fps=0.8 q=38.0 size=    1024KiB time=00:00:01.10 bitrate=7626.3kbits/s speed=0.00679x elapsed=0:02:41.96    \nframe=  134 fps=0.8 q=38.0 size=    1024KiB time=00:00:01.10 bitrate=7626.3kbits/s speed=0.00677x elapsed=0:02:42.49    \nframe=  135 fps=0.8 q=37.9 size=    1024KiB time=00:00:01.10 bitrate=7569.0kbits/s speed=0.0068x elapsed=0:02:43.03    \nframe=  136 fps=0.8 q=37.9 size=    1024KiB time=00:00:01.11 bitrate=7512.5kbits/s speed=0.00683x elapsed=0:02:43.56    \nframe=  136 fps=0.8 q=37.9 size=    1024KiB time=00:00:01.11 bitrate=7512.5kbits/s speed=0.00681x elapsed=0:02:44.09    \nframe=  137 fps=0.8 q=31.8 size=    1024KiB time=00:00:01.12 bitrate=7456.9kbits/s speed=0.00683x elapsed=0:02:44.63    \nframe=  137 fps=0.8 q=31.8 size=    1024KiB time=00:00:01.12 bitrate=7456.9kbits/s speed=0.00681x elapsed=0:02:45.17    \nframe=  138 fps=0.8 q=36.8 size=    1024KiB time=00:00:01.13 bitrate=7402.0kbits/s speed=0.00684x elapsed=0:02:45.70    \nframe=  139 fps=0.8 q=37.2 size=    1024KiB time=00:00:01.14 bitrate=7348.0kbits/s speed=0.00687x elapsed=0:02:46.25    \nframe=  139 fps=0.8 q=37.2 size=    1024KiB time=00:00:01.14 bitrate=7348.0kbits/s speed=0.00685x elapsed=0:02:46.76    \nframe=  139 fps=0.8 q=37.2 size=    1024KiB time=00:00:01.14 bitrate=7348.0kbits/s speed=0.00683x elapsed=0:02:47.27    \nframe=  140 fps=0.8 q=37.0 size=    1024KiB time=00:00:01.15 bitrate=7294.7kbits/s speed=0.00685x elapsed=0:02:47.80    \nframe=  141 fps=0.8 q=37.1 size=    1024KiB time=00:00:01.15 bitrate=7242.3kbits/s speed=0.00688x elapsed=0:02:48.34    \nframe=  141 fps=0.8 q=37.1 size=    1024KiB time=00:00:01.15 bitrate=7242.3kbits/s speed=0.00686x elapsed=0:02:48.84    \nframe=  142 fps=0.8 q=31.4 size=    1024KiB time=00:00:01.16 bitrate=7190.5kbits/s speed=0.00689x elapsed=0:02:49.36    \nframe=  142 fps=0.8 q=31.4 size=    1024KiB time=00:00:01.16 bitrate=7190.5kbits/s speed=0.00687x elapsed=0:02:49.87    \nframe=  143 fps=0.8 q=36.2 size=    1024KiB time=00:00:01.17 bitrate=7139.5kbits/s speed=0.0069x elapsed=0:02:50.39    \nframe=  144 fps=0.8 q=36.9 size=    1024KiB time=00:00:01.18 bitrate=7089.3kbits/s speed=0.00692x elapsed=0:02:50.93    \nframe=  145 fps=0.8 q=36.8 size=    1024KiB time=00:00:01.18 bitrate=7089.3kbits/s speed=0.0069x elapsed=0:02:51.44    \nframe=  145 fps=0.8 q=36.8 size=    1024KiB time=00:00:01.19 bitrate=7039.7kbits/s speed=0.00693x elapsed=0:02:51.99    \nframe=  146 fps=0.8 q=36.8 size=    1024KiB time=00:00:01.20 bitrate=6990.8kbits/s speed=0.00696x elapsed=0:02:52.52    \nframe=  146 fps=0.8 q=36.8 size=    1024KiB time=00:00:01.20 bitrate=6990.8kbits/s speed=0.00693x elapsed=0:02:53.05    \nframe=  146 fps=0.8 q=36.8 size=    1024KiB time=00:00:01.20 bitrate=6990.8kbits/s speed=0.00691x elapsed=0:02:53.58    \nframe=  147 fps=0.8 q=30.6 size=    1024KiB time=00:00:01.20 bitrate=6942.6kbits/s speed=0.00694x elapsed=0:02:54.11    \nframe=  147 fps=0.8 q=30.6 size=    1024KiB time=00:00:01.20 bitrate=6942.6kbits/s speed=0.00692x elapsed=0:02:54.63    \nframe=  148 fps=0.8 q=36.0 size=    1024KiB time=00:00:01.21 bitrate=6895.0kbits/s speed=0.00694x elapsed=0:02:55.18    \nframe=  149 fps=0.8 q=36.2 size=    1024KiB time=00:00:01.22 bitrate=6848.1kbits/s speed=0.00697x elapsed=0:02:55.74    \nframe=  149 fps=0.8 q=36.2 size=    1024KiB time=00:00:01.22 bitrate=6848.1kbits/s speed=0.00695x elapsed=0:02:56.25    \nframe=  150 fps=0.8 q=36.1 size=    1024KiB time=00:00:01.23 bitrate=6801.9kbits/s speed=0.00697x elapsed=0:02:56.82    \nframe=  151 fps=0.9 q=36.0 size=    1024KiB time=00:00:01.24 bitrate=6756.2kbits/s speed=0.007x elapsed=0:02:57.37    \nframe=  152 fps=0.9 q=30.0 size=    1024KiB time=00:00:01.25 bitrate=6711.2kbits/s speed=0.00703x elapsed=0:02:57.88    \nframe=  153 fps=0.9 q=35.1 size=    1024KiB time=00:00:01.25 bitrate=6666.7kbits/s speed=0.00705x elapsed=0:02:58.41    \nframe=  153 fps=0.9 q=35.1 size=    1024KiB time=00:00:01.25 bitrate=6666.7kbits/s speed=0.00703x elapsed=0:02:58.96    \nframe=  154 fps=0.9 q=35.9 size=    1024KiB time=00:00:01.26 bitrate=6622.9kbits/s speed=0.00706x elapsed=0:02:59.48    \nframe=  155 fps=0.9 q=35.9 size=    1024KiB time=00:00:01.27 bitrate=6579.6kbits/s speed=0.00708x elapsed=0:03:00.02    \nframe=  156 fps=0.9 q=35.3 size=    1024KiB time=00:00:01.28 bitrate=6536.9kbits/s speed=0.00711x elapsed=0:03:00.55    \nframe=  156 fps=0.9 q=35.3 size=    1024KiB time=00:00:01.28 bitrate=6536.9kbits/s speed=0.00709x elapsed=0:03:01.06    \nframe=  157 fps=0.9 q=29.4 size=    1024KiB time=00:00:01.29 bitrate=6494.7kbits/s speed=0.00711x elapsed=0:03:01.58    \nframe=  157 fps=0.9 q=29.4 size=    1024KiB time=00:00:01.29 bitrate=6494.7kbits/s speed=0.00709x elapsed=0:03:02.11    \nframe=  157 fps=0.9 q=29.4 size=    1024KiB time=00:00:01.29 bitrate=6494.7kbits/s speed=0.00707x elapsed=0:03:02.63    \nframe=  158 fps=0.9 q=34.9 size=    1024KiB time=00:00:01.30 bitrate=6453.0kbits/s speed=0.0071x elapsed=0:03:03.14    \nframe=  159 fps=0.9 q=35.3 size=    1024KiB time=00:00:01.30 bitrate=6411.9kbits/s speed=0.00712x elapsed=0:03:03.68    \nframe=  159 fps=0.9 q=35.3 size=    1024KiB time=00:00:01.30 bitrate=6411.9kbits/s speed=0.0071x elapsed=0:03:04.19    \nframe=  159 fps=0.9 q=35.3 size=    1024KiB time=00:00:01.30 bitrate=6411.9kbits/s speed=0.00708x elapsed=0:03:04.70    \nframe=  160 fps=0.9 q=35.0 size=    1024KiB time=00:00:01.31 bitrate=6371.4kbits/s speed=0.00711x elapsed=0:03:05.22    \nframe=  161 fps=0.9 q=34.7 size=    1024KiB time=00:00:01.32 bitrate=6331.3kbits/s speed=0.00713x elapsed=0:03:05.75    \nframe=  161 fps=0.9 q=34.7 size=    1024KiB time=00:00:01.32 bitrate=6331.3kbits/s speed=0.00711x elapsed=0:03:06.27    \nframe=  162 fps=0.9 q=28.9 size=    1024KiB time=00:00:01.33 bitrate=6291.7kbits/s speed=0.00714x elapsed=0:03:06.79    \nframe=  163 fps=0.9 q=34.2 size=    1024KiB time=00:00:01.34 bitrate=6252.6kbits/s speed=0.00716x elapsed=0:03:07.32    \nframe=  164 fps=0.9 q=34.6 size=    1024KiB time=00:00:01.35 bitrate=6214.0kbits/s speed=0.00719x elapsed=0:03:07.85    \nframe=  164 fps=0.9 q=34.6 size=    1024KiB time=00:00:01.35 bitrate=6214.0kbits/s speed=0.00717x elapsed=0:03:08.39    \nframe=  165 fps=0.9 q=34.4 size=    1280KiB time=00:00:01.35 bitrate=7719.8kbits/s speed=0.00719x elapsed=0:03:08.91    \nframe=  165 fps=0.9 q=34.4 size=    1280KiB time=00:00:01.35 bitrate=7719.8kbits/s speed=0.00717x elapsed=0:03:09.44    \nframe=  166 fps=0.9 q=34.4 size=    1280KiB time=00:00:01.36 bitrate=7672.8kbits/s speed=0.00719x elapsed=0:03:09.98    \nframe=  166 fps=0.9 q=34.4 size=    1280KiB time=00:00:01.36 bitrate=7672.8kbits/s speed=0.00717x elapsed=0:03:10.54    \nframe=  167 fps=0.9 q=28.3 size=    1280KiB time=00:00:01.37 bitrate=7626.3kbits/s speed=0.0072x elapsed=0:03:11.05    \nframe=  168 fps=0.9 q=34.0 size=    1280KiB time=00:00:01.38 bitrate=7580.3kbits/s speed=0.00722x elapsed=0:03:11.59    \nframe=  169 fps=0.9 q=34.4 size=    1280KiB time=00:00:01.39 bitrate=7534.9kbits/s speed=0.00724x elapsed=0:03:12.13    \nframe=  169 fps=0.9 q=34.4 size=    1280KiB time=00:00:01.39 bitrate=7534.9kbits/s speed=0.00722x elapsed=0:03:12.64    \nframe=  169 fps=0.9 q=34.4 size=    1280KiB time=00:00:01.39 bitrate=7534.9kbits/s speed=0.0072x elapsed=0:03:13.16    \nframe=  170 fps=0.9 q=33.9 size=    1280KiB time=00:00:01.40 bitrate=7490.1kbits/s speed=0.00723x elapsed=0:03:13.70    \nframe=  171 fps=0.9 q=34.0 size=    1280KiB time=00:00:01.40 bitrate=7445.8kbits/s speed=0.00725x elapsed=0:03:14.23    \nframe=  172 fps=0.9 q=27.8 size=    1280KiB time=00:00:01.41 bitrate=7402.0kbits/s speed=0.00727x elapsed=0:03:14.76    \nframe=  173 fps=0.9 q=33.3 size=    1280KiB time=00:00:01.42 bitrate=7358.7kbits/s speed=0.0073x elapsed=0:03:15.27    \nframe=  174 fps=0.9 q=34.2 size=    1280KiB time=00:00:01.43 bitrate=7315.9kbits/s speed=0.00732x elapsed=0:03:15.79    \nframe=  174 fps=0.9 q=34.2 size=    1280KiB time=00:00:01.43 bitrate=7315.9kbits/s speed=0.0073x elapsed=0:03:16.30    \nframe=  175 fps=0.9 q=33.6 size=    1280KiB time=00:00:01.44 bitrate=7273.6kbits/s speed=0.00732x elapsed=0:03:16.86    \nframe=  175 fps=0.9 q=33.6 size=    1280KiB time=00:00:01.44 bitrate=7273.6kbits/s speed=0.0073x elapsed=0:03:17.39    \nframe=  176 fps=0.9 q=33.5 size=    1280KiB time=00:00:01.45 bitrate=7231.8kbits/s speed=0.00733x elapsed=0:03:17.91    \nframe=  177 fps=0.9 q=27.5 size=    1280KiB time=00:00:01.45 bitrate=7190.5kbits/s speed=0.00735x elapsed=0:03:18.44    \nframe=  177 fps=0.9 q=27.5 size=    1280KiB time=00:00:01.45 bitrate=7190.5kbits/s speed=0.00733x elapsed=0:03:18.94    \nframe=  178 fps=0.9 q=33.1 size=    1280KiB time=00:00:01.46 bitrate=7149.6kbits/s speed=0.00735x elapsed=0:03:19.49    \nframe=  179 fps=0.9 q=33.8 size=    1280KiB time=00:00:01.47 bitrate=7109.2kbits/s speed=0.00737x elapsed=0:03:20.00    \nframe=  179 fps=0.9 q=33.8 size=    1280KiB time=00:00:01.47 bitrate=7109.2kbits/s speed=0.00735x elapsed=0:03:20.54    \nframe=  180 fps=0.9 q=33.6 size=    1280KiB time=00:00:01.48 bitrate=7069.3kbits/s speed=0.00738x elapsed=0:03:21.07    \nframe=  181 fps=0.9 q=33.5 size=    1280KiB time=00:00:01.49 bitrate=7029.8kbits/s speed=0.0074x elapsed=0:03:21.59    \nframe=  182 fps=0.9 q=27.5 size=    1280KiB time=00:00:01.50 bitrate=6990.7kbits/s speed=0.00742x elapsed=0:03:22.12    \nframe=  182 fps=0.9 q=27.5 size=    1280KiB time=00:00:01.50 bitrate=6990.7kbits/s speed=0.0074x elapsed=0:03:22.64    \nframe=  183 fps=0.9 q=33.0 size=    1280KiB time=00:00:01.50 bitrate=6990.7kbits/s speed=0.00738x elapsed=0:03:23.16    \nframe=  184 fps=0.9 q=33.5 size=    1280KiB time=00:00:01.51 bitrate=6913.9kbits/s speed=0.00745x elapsed=0:03:23.68    \nframe=  185 fps=0.9 q=33.2 size=    1280KiB time=00:00:01.52 bitrate=6876.1kbits/s speed=0.00747x elapsed=0:03:24.20    \nframe=  185 fps=0.9 q=33.2 size=    1280KiB time=00:00:01.52 bitrate=6876.1kbits/s speed=0.00745x elapsed=0:03:24.73    \nframe=  186 fps=0.9 q=33.3 size=    1280KiB time=00:00:01.53 bitrate=6838.8kbits/s speed=0.00747x elapsed=0:03:25.27    \nframe=  186 fps=0.9 q=33.3 size=    1280KiB time=00:00:01.53 bitrate=6838.8kbits/s speed=0.00745x elapsed=0:03:25.80    \nframe=  187 fps=0.9 q=27.2 size=    1280KiB time=00:00:01.54 bitrate=6801.8kbits/s speed=0.00747x elapsed=0:03:26.31    \nframe=  187 fps=0.9 q=27.2 size=    1280KiB time=00:00:01.54 bitrate=6801.8kbits/s speed=0.00745x elapsed=0:03:26.84    \nframe=  189 fps=0.9 q=33.6 size=    1280KiB time=00:00:01.55 bitrate=6729.1kbits/s speed=0.00751x elapsed=0:03:27.37    \nframe=  190 fps=0.9 q=32.9 size=    1280KiB time=00:00:01.56 bitrate=6693.3kbits/s speed=0.00754x elapsed=0:03:27.88    \nframe=  190 fps=0.9 q=32.9 size=    1280KiB time=00:00:01.56 bitrate=6693.3kbits/s speed=0.00752x elapsed=0:03:28.42    \nframe=  192 fps=0.9 q=27.3 size=    1280KiB time=00:00:01.58 bitrate=6622.8kbits/s speed=0.00758x elapsed=0:03:28.97    \nframe=  193 fps=0.9 q=32.4 size=    1280KiB time=00:00:01.59 bitrate=6588.1kbits/s speed=0.0076x elapsed=0:03:29.49    \nframe=  194 fps=0.9 q=32.9 size=    1280KiB time=00:00:01.60 bitrate=6553.8kbits/s speed=0.00762x elapsed=0:03:30.04    \nframe=  194 fps=0.9 q=32.9 size=    1280KiB time=00:00:01.60 bitrate=6553.8kbits/s speed=0.0076x elapsed=0:03:30.55    \nframe=  194 fps=0.9 q=32.9 size=    1280KiB time=00:00:01.60 bitrate=6553.8kbits/s speed=0.00758x elapsed=0:03:31.07    \nframe=  195 fps=0.9 q=32.7 size=    1280KiB time=00:00:01.60 bitrate=6519.9kbits/s speed=0.0076x elapsed=0:03:31.58    \nframe=  196 fps=0.9 q=32.7 size=    1280KiB time=00:00:01.61 bitrate=6486.3kbits/s speed=0.00762x elapsed=0:03:32.11    \nframe=  197 fps=0.9 q=27.0 size=    1280KiB time=00:00:01.62 bitrate=6453.0kbits/s speed=0.00764x elapsed=0:03:32.63    \nframe=  198 fps=0.9 q=32.4 size=    1280KiB time=00:00:01.63 bitrate=6420.1kbits/s speed=0.00766x elapsed=0:03:33.15    \nframe=  199 fps=0.9 q=33.2 size=    1536KiB time=00:00:01.64 bitrate=7664.9kbits/s speed=0.00768x elapsed=0:03:33.66    \nframe=  200 fps=0.9 q=33.1 size=    1536KiB time=00:00:01.65 bitrate=7626.2kbits/s speed=0.0077x elapsed=0:03:34.20    \nframe=  201 fps=0.9 q=32.5 size=    1536KiB time=00:00:01.65 bitrate=7587.9kbits/s speed=0.00772x elapsed=0:03:34.74    \nframe=  201 fps=0.9 q=32.5 size=    1536KiB time=00:00:01.65 bitrate=7587.9kbits/s speed=0.0077x elapsed=0:03:35.26    \nframe=  201 fps=0.9 q=32.5 size=    1536KiB time=00:00:01.65 bitrate=7587.9kbits/s speed=0.00769x elapsed=0:03:35.78    \nframe=  203 fps=0.9 q=32.2 size=    1536KiB time=00:00:01.67 bitrate=7512.4kbits/s speed=0.00774x elapsed=0:03:36.30    \nframe=  203 fps=0.9 q=32.2 size=    1536KiB time=00:00:01.67 bitrate=7512.4kbits/s speed=0.00772x elapsed=0:03:36.82    \nframe=  204 fps=0.9 q=33.0 size=    1536KiB time=00:00:01.68 bitrate=7475.2kbits/s speed=0.00774x elapsed=0:03:37.35    \nframe=  205 fps=0.9 q=32.9 size=    1536KiB time=00:00:01.69 bitrate=7438.4kbits/s speed=0.00776x elapsed=0:03:37.86    \nframe=  205 fps=0.9 q=32.9 size=    1536KiB time=00:00:01.69 bitrate=7438.4kbits/s speed=0.00775x elapsed=0:03:38.40    \nframe=  206 fps=0.9 q=32.3 size=    1536KiB time=00:00:01.70 bitrate=7401.9kbits/s speed=0.00776x elapsed=0:03:38.94    \nframe=  208 fps=0.9 q=32.1 size=    1536KiB time=00:00:01.71 bitrate=7330.1kbits/s speed=0.00782x elapsed=0:03:39.48    \nframe=  208 fps=0.9 q=32.1 size=    1536KiB time=00:00:01.71 bitrate=7330.1kbits/s speed=0.0078x elapsed=0:03:40.00    \nframe=  208 fps=0.9 q=32.1 size=    1536KiB time=00:00:01.71 bitrate=7330.1kbits/s speed=0.00778x elapsed=0:03:40.52    \nframe=  209 fps=0.9 q=32.6 size=    1536KiB time=00:00:01.72 bitrate=7294.6kbits/s speed=0.0078x elapsed=0:03:41.03    \nframe=  209 fps=0.9 q=32.6 size=    1536KiB time=00:00:01.72 bitrate=7294.6kbits/s speed=0.00779x elapsed=0:03:41.56    \nframe=  210 fps=0.9 q=32.6 size=    1536KiB time=00:00:01.73 bitrate=7259.6kbits/s speed=0.00781x elapsed=0:03:42.07    \nframe=  211 fps=0.9 q=32.3 size=    1536KiB time=00:00:01.74 bitrate=7224.8kbits/s speed=0.00782x elapsed=0:03:42.58    \nframe=  212 fps=1.0 q=26.4 size=    1536KiB time=00:00:01.75 bitrate=7190.4kbits/s speed=0.00784x elapsed=0:03:43.10    \nframe=  212 fps=0.9 q=26.4 size=    1536KiB time=00:00:01.75 bitrate=7190.4kbits/s speed=0.00783x elapsed=0:03:43.63    \nframe=  213 fps=1.0 q=31.9 size=    1536KiB time=00:00:01.75 bitrate=7156.4kbits/s speed=0.00784x elapsed=0:03:44.14    \nframe=  214 fps=1.0 q=33.0 size=    1536KiB time=00:00:01.76 bitrate=7122.6kbits/s speed=0.00786x elapsed=0:03:44.66    \nframe=  214 fps=1.0 q=33.0 size=    1536KiB time=00:00:01.76 bitrate=7122.6kbits/s speed=0.00785x elapsed=0:03:45.18    \nframe=  214 fps=0.9 q=33.0 size=    1536KiB time=00:00:01.76 bitrate=7122.6kbits/s speed=0.00783x elapsed=0:03:45.69    \nframe=  215 fps=1.0 q=32.2 size=    1536KiB time=00:00:01.77 bitrate=7089.2kbits/s speed=0.00785x elapsed=0:03:46.21    \nframe=  216 fps=1.0 q=32.3 size=    1536KiB time=00:00:01.78 bitrate=7056.0kbits/s speed=0.00786x elapsed=0:03:46.74    \nframe=  217 fps=1.0 q=26.4 size=    1536KiB time=00:00:01.79 bitrate=7023.2kbits/s speed=0.00788x elapsed=0:03:47.27    \nframe=  218 fps=1.0 q=31.6 size=    1536KiB time=00:00:01.80 bitrate=6990.7kbits/s speed=0.0079x elapsed=0:03:47.80    \nframe=  219 fps=1.0 q=32.3 size=    1536KiB time=00:00:01.80 bitrate=6958.5kbits/s speed=0.00792x elapsed=0:03:48.33    \nframe=  219 fps=1.0 q=32.3 size=    1536KiB time=00:00:01.80 bitrate=6958.5kbits/s speed=0.0079x elapsed=0:03:48.85    \nframe=  220 fps=1.0 q=32.1 size=    1536KiB time=00:00:01.81 bitrate=6926.6kbits/s speed=0.00792x elapsed=0:03:49.40    \nframe=  222 fps=1.0 q=26.2 size=    1536KiB time=00:00:01.83 bitrate=6863.6kbits/s speed=0.00797x elapsed=0:03:49.92    \nframe=  223 fps=1.0 q=31.4 size=    1536KiB time=00:00:01.84 bitrate=6832.5kbits/s speed=0.00799x elapsed=0:03:50.45    \nframe=  223 fps=1.0 q=31.4 size=    1536KiB time=00:00:01.84 bitrate=6832.5kbits/s speed=0.00797x elapsed=0:03:50.97    \nframe=  224 fps=1.0 q=32.3 size=    1536KiB time=00:00:01.85 bitrate=6801.8kbits/s speed=0.00799x elapsed=0:03:51.47    \nframe=  225 fps=1.0 q=31.9 size=    1536KiB time=00:00:01.85 bitrate=6771.3kbits/s speed=0.00801x elapsed=0:03:51.99    \nframe=  225 fps=1.0 q=31.9 size=    1536KiB time=00:00:01.85 bitrate=6771.3kbits/s speed=0.00799x elapsed=0:03:52.51    \nframe=  226 fps=1.0 q=32.2 size=    1536KiB time=00:00:01.86 bitrate=6741.0kbits/s speed=0.00801x elapsed=0:03:53.02    \nframe=  227 fps=1.0 q=27.6 size=    1536KiB time=00:00:01.87 bitrate=6711.1kbits/s speed=0.00803x elapsed=0:03:53.53    \nframe=  228 fps=1.0 q=33.8 size=    1536KiB time=00:00:01.88 bitrate=6681.4kbits/s speed=0.00805x elapsed=0:03:54.06    \nframe=  229 fps=1.0 q=34.2 size=    1536KiB time=00:00:01.89 bitrate=6651.9kbits/s speed=0.00806x elapsed=0:03:54.60    \nframe=  230 fps=1.0 q=34.5 size=    1536KiB time=00:00:01.90 bitrate=6622.8kbits/s speed=0.00808x elapsed=0:03:55.13    \nframe=  230 fps=1.0 q=34.5 size=    1536KiB time=00:00:01.90 bitrate=6622.8kbits/s speed=0.00806x elapsed=0:03:55.68    \nframe=  231 fps=1.0 q=35.2 size=    1536KiB time=00:00:01.90 bitrate=6622.8kbits/s speed=0.00804x elapsed=0:03:56.20    \nframe=  232 fps=1.0 q=27.6 size=    1536KiB time=00:00:01.91 bitrate=6565.2kbits/s speed=0.0081x elapsed=0:03:56.75    \nframe=  233 fps=1.0 q=34.2 size=    1792KiB time=00:00:01.92 bitrate=7626.2kbits/s speed=0.00811x elapsed=0:03:57.27    \nframe=  233 fps=1.0 q=34.2 size=    1792KiB time=00:00:01.92 bitrate=7626.2kbits/s speed=0.00809x elapsed=0:03:57.80    \nframe=  234 fps=1.0 q=35.3 size=    1792KiB time=00:00:01.93 bitrate=7593.3kbits/s speed=0.00811x elapsed=0:03:58.33    \nframe=  235 fps=1.0 q=35.5 size=    1792KiB time=00:00:01.94 bitrate=7560.7kbits/s speed=0.00813x elapsed=0:03:58.85    \nframe=  236 fps=1.0 q=35.7 size=    1792KiB time=00:00:01.95 bitrate=7528.4kbits/s speed=0.00815x elapsed=0:03:59.39    \nframe=  237 fps=1.0 q=28.4 size=    1792KiB time=00:00:01.95 bitrate=7496.4kbits/s speed=0.00816x elapsed=0:03:59.93    \nframe=  238 fps=1.0 q=34.2 size=    1792KiB time=00:00:01.96 bitrate=7464.6kbits/s speed=0.00818x elapsed=0:04:00.45    \nframe=  239 fps=1.0 q=35.5 size=    1792KiB time=00:00:01.97 bitrate=7433.1kbits/s speed=0.0082x elapsed=0:04:00.99    \nframe=  241 fps=1.0 q=35.7 size=    1792KiB time=00:00:01.99 bitrate=7370.9kbits/s speed=0.00825x elapsed=0:04:01.52    \nframe=  241 fps=1.0 q=35.7 size=    1792KiB time=00:00:01.99 bitrate=7370.9kbits/s speed=0.00823x elapsed=0:04:02.04    \nframe=  241 fps=1.0 q=35.7 size=    1792KiB time=00:00:01.99 bitrate=7370.9kbits/s speed=0.00821x elapsed=0:04:02.58    \nframe=  242 fps=1.0 q=28.4 size=    1792KiB time=00:00:02.00 bitrate=7340.2kbits/s speed=0.00823x elapsed=0:04:03.11    \nframe=  243 fps=1.0 q=34.3 size=    1792KiB time=00:00:02.00 bitrate=7309.8kbits/s speed=0.00824x elapsed=0:04:03.62    \nframe=  244 fps=1.0 q=35.6 size=    1792KiB time=00:00:02.01 bitrate=7279.5kbits/s speed=0.00826x elapsed=0:04:04.14    \nframe=  244 fps=1.0 q=35.6 size=    1792KiB time=00:00:02.01 bitrate=7279.5kbits/s speed=0.00824x elapsed=0:04:04.68    \nframe=  245 fps=1.0 q=35.1 size=    1792KiB time=00:00:02.02 bitrate=7249.6kbits/s speed=0.00826x elapsed=0:04:05.21    \nframe=  246 fps=1.0 q=35.7 size=    1792KiB time=00:00:02.03 bitrate=7219.9kbits/s speed=0.00827x elapsed=0:04:05.75    \nframe=  246 fps=1.0 q=35.7 size=    1792KiB time=00:00:02.03 bitrate=7219.9kbits/s speed=0.00826x elapsed=0:04:06.29    \nframe=  246 fps=1.0 q=35.7 size=    1792KiB time=00:00:02.03 bitrate=7219.9kbits/s speed=0.00824x elapsed=0:04:06.83    \nframe=  246 fps=1.0 q=35.7 size=    1792KiB time=00:00:02.03 bitrate=7219.9kbits/s speed=0.00822x elapsed=0:04:07.36    \nframe=  246 fps=1.0 q=35.7 size=    1792KiB time=00:00:02.03 bitrate=7219.9kbits/s speed=0.0082x elapsed=0:04:07.89    \nframe=  247 fps=1.0 q=23.8 size=    1792KiB time=00:00:02.04 bitrate=7190.4kbits/s speed=0.00822x elapsed=0:04:08.44    \nframe=  248 fps=1.0 q=33.3 size=    1792KiB time=00:00:02.05 bitrate=7161.2kbits/s speed=0.00823x elapsed=0:04:08.97    \nframe=  248 fps=1.0 q=33.3 size=    1792KiB time=00:00:02.05 bitrate=7161.2kbits/s speed=0.00822x elapsed=0:04:09.51    \nframe=  248 fps=1.0 q=33.3 size=    1792KiB time=00:00:02.05 bitrate=7161.2kbits/s speed=0.0082x elapsed=0:04:10.04    \nframe=  250 fps=1.0 q=31.2 size=    1792KiB time=00:00:02.06 bitrate=7103.4kbits/s speed=0.00825x elapsed=0:04:10.59    \nframe=  250 fps=1.0 q=31.2 size=    1792KiB time=00:00:02.06 bitrate=7103.4kbits/s speed=0.00823x elapsed=0:04:11.13    \nframe=  250 fps=1.0 q=31.2 size=    1792KiB time=00:00:02.06 bitrate=7103.4kbits/s speed=0.00821x elapsed=0:04:11.71    \nframe=  251 fps=1.0 q=32.2 size=    1792KiB time=00:00:02.07 bitrate=7074.9kbits/s speed=0.00822x elapsed=0:04:12.28    \nframe=  251 fps=1.0 q=32.2 size=    1792KiB time=00:00:02.07 bitrate=7074.9kbits/s speed=0.00821x elapsed=0:04:12.89    \nframe=  251 fps=1.0 q=32.2 size=    1792KiB time=00:00:02.07 bitrate=7074.9kbits/s speed=0.00819x elapsed=0:04:13.43    \nframe=  251 fps=1.0 q=32.2 size=    1792KiB time=00:00:02.07 bitrate=7074.9kbits/s speed=0.00817x elapsed=0:04:14.00    \nframe=  251 fps=1.0 q=32.2 size=    1792KiB time=00:00:02.07 bitrate=7074.9kbits/s speed=0.00815x elapsed=0:04:14.64    \nframe=  251 fps=1.0 q=32.2 size=    1792KiB time=00:00:02.07 bitrate=7074.9kbits/s speed=0.00813x elapsed=0:04:15.21    \nframe=  251 fps=1.0 q=32.2 size=    1792KiB time=00:00:02.07 bitrate=7074.9kbits/s speed=0.00811x elapsed=0:04:15.80    \nframe=  252 fps=1.0 q=27.0 size=    1792KiB time=00:00:02.08 bitrate=7046.6kbits/s speed=0.00813x elapsed=0:04:16.35    \nframe=  252 fps=1.0 q=27.0 size=    1792KiB time=00:00:02.08 bitrate=7046.6kbits/s speed=0.00811x elapsed=0:04:16.92    \nframe=  252 fps=1.0 q=27.0 size=    1792KiB time=00:00:02.08 bitrate=7046.6kbits/s speed=0.00809x elapsed=0:04:17.46    \nframe=  252 fps=1.0 q=27.0 size=    1792KiB time=00:00:02.08 bitrate=7046.6kbits/s speed=0.00807x elapsed=0:04:18.04    \nframe=  252 fps=1.0 q=27.0 size=    1792KiB time=00:00:02.08 bitrate=7046.6kbits/s speed=0.00806x elapsed=0:04:18.60    \nframe=  252 fps=1.0 q=27.0 size=    1792KiB time=00:00:02.08 bitrate=7046.6kbits/s speed=0.00804x elapsed=0:04:19.21    \nframe=  254 fps=1.0 q=31.9 size=    1792KiB time=00:00:02.10 bitrate=6990.7kbits/s speed=0.00808x elapsed=0:04:19.80    \nframe=  255 fps=1.0 q=32.3 size=    1792KiB time=00:00:02.10 bitrate=6963.0kbits/s speed=0.0081x elapsed=0:04:20.37    \nframe=  256 fps=1.0 q=33.0 size=    1792KiB time=00:00:02.11 bitrate=6935.6kbits/s speed=0.00811x elapsed=0:04:20.94    \nframe=  256 fps=1.0 q=33.0 size=    1792KiB time=00:00:02.11 bitrate=6935.6kbits/s speed=0.00809x elapsed=0:04:21.52    \nframe=  257 fps=1.0 q=26.2 size=    1792KiB time=00:00:02.12 bitrate=6908.4kbits/s speed=0.00811x elapsed=0:04:22.09    \nframe=  257 fps=1.0 q=26.2 size=    1792KiB time=00:00:02.12 bitrate=6908.4kbits/s speed=0.00809x elapsed=0:04:22.67    \nframe=  257 fps=1.0 q=26.2 size=    1792KiB time=00:00:02.12 bitrate=6908.4kbits/s speed=0.00807x elapsed=0:04:23.22    \nframe=  258 fps=1.0 q=32.4 size=    2048KiB time=00:00:02.13 bitrate=7864.5kbits/s speed=0.00809x elapsed=0:04:23.77    \nframe=  258 fps=1.0 q=32.4 size=    2048KiB time=00:00:02.13 bitrate=7864.5kbits/s speed=0.00807x elapsed=0:04:24.32    \nframe=  259 fps=1.0 q=33.1 size=    2048KiB time=00:00:02.14 bitrate=7833.9kbits/s speed=0.00809x elapsed=0:04:24.88    \nframe=  259 fps=1.0 q=33.1 size=    2048KiB time=00:00:02.14 bitrate=7833.9kbits/s speed=0.00807x elapsed=0:04:25.49    \nframe=  260 fps=1.0 q=33.2 size=    2048KiB time=00:00:02.15 bitrate=7803.5kbits/s speed=0.00808x elapsed=0:04:26.05    \nframe=  261 fps=1.0 q=32.3 size=    2048KiB time=00:00:02.15 bitrate=7773.4kbits/s speed=0.0081x elapsed=0:04:26.59    \nframe=  262 fps=1.0 q=26.0 size=    2048KiB time=00:00:02.16 bitrate=7743.5kbits/s speed=0.00811x elapsed=0:04:27.17    \nframe=  262 fps=1.0 q=26.0 size=    2048KiB time=00:00:02.16 bitrate=7743.5kbits/s speed=0.00809x elapsed=0:04:27.72    \nframe=  263 fps=1.0 q=32.1 size=    2048KiB time=00:00:02.17 bitrate=7713.8kbits/s speed=0.00811x elapsed=0:04:28.24    \nframe=  263 fps=1.0 q=32.1 size=    2048KiB time=00:00:02.17 bitrate=7713.8kbits/s speed=0.00809x elapsed=0:04:28.77    \nframe=  264 fps=1.0 q=32.1 size=    2048KiB time=00:00:02.18 bitrate=7684.4kbits/s speed=0.00811x elapsed=0:04:29.29    \nframe=  264 fps=1.0 q=32.1 size=    2048KiB time=00:00:02.18 bitrate=7684.4kbits/s speed=0.00809x elapsed=0:04:29.81    \nframe=  266 fps=1.0 q=31.7 size=    2048KiB time=00:00:02.20 bitrate=7626.2kbits/s speed=0.00814x elapsed=0:04:30.36    \nframe=  268 fps=1.0 q=31.5 size=    2048KiB time=00:00:02.21 bitrate=7568.8kbits/s speed=0.00818x elapsed=0:04:30.88    \nframe=  269 fps=1.0 q=31.4 size=    2048KiB time=00:00:02.22 bitrate=7540.5kbits/s speed=0.0082x elapsed=0:04:31.42    \nframe=  269 fps=1.0 q=31.4 size=    2048KiB time=00:00:02.22 bitrate=7540.5kbits/s speed=0.00818x elapsed=0:04:31.94    \nframe=  271 fps=1.0 q=30.7 size=    2048KiB time=00:00:02.24 bitrate=7484.4kbits/s speed=0.00823x elapsed=0:04:32.46    \nframe=  271 fps=1.0 q=30.7 size=    2048KiB time=00:00:02.24 bitrate=7484.4kbits/s speed=0.00821x elapsed=0:04:33.00    \nframe=  272 fps=1.0 q=25.0 size=    2048KiB time=00:00:02.25 bitrate=7456.7kbits/s speed=0.00823x elapsed=0:04:33.53    \nframe=  273 fps=1.0 q=31.3 size=    2048KiB time=00:00:02.25 bitrate=7429.2kbits/s speed=0.00824x elapsed=0:04:34.06    \nframe=  273 fps=1.0 q=31.3 size=    2048KiB time=00:00:02.25 bitrate=7429.2kbits/s speed=0.00822x elapsed=0:04:34.59    \nframe=  274 fps=1.0 q=31.8 size=    2048KiB time=00:00:02.26 bitrate=7401.9kbits/s speed=0.00824x elapsed=0:04:35.12    \nframe=  275 fps=1.0 q=31.2 size=    2048KiB time=00:00:02.27 bitrate=7374.8kbits/s speed=0.00825x elapsed=0:04:35.64    \nframe=  276 fps=1.0 q=30.6 size=    2048KiB time=00:00:02.28 bitrate=7347.8kbits/s speed=0.00827x elapsed=0:04:36.17    \nframe=  276 fps=1.0 q=30.6 size=    2048KiB time=00:00:02.28 bitrate=7347.8kbits/s speed=0.00825x elapsed=0:04:36.68    \nframe=  277 fps=1.0 q=24.7 size=    2048KiB time=00:00:02.29 bitrate=7321.1kbits/s speed=0.00827x elapsed=0:04:37.22    \nframe=  277 fps=1.0 q=24.7 size=    2048KiB time=00:00:02.29 bitrate=7321.1kbits/s speed=0.00825x elapsed=0:04:37.76    \nframe=  278 fps=1.0 q=29.3 size=    2048KiB time=00:00:02.30 bitrate=7294.6kbits/s speed=0.00827x elapsed=0:04:38.27    \nframe=  281 fps=1.0 q=24.7 size=    2048KiB time=00:00:02.31 bitrate=7242.1kbits/s speed=0.00831x elapsed=0:04:38.79    \nframe=  281 fps=1.0 q=24.7 size=    2048KiB time=00:00:02.32 bitrate=7216.2kbits/s speed=0.00832x elapsed=0:04:39.35    \nframe=  283 fps=1.0 q=30.3 size=    2048KiB time=00:00:02.34 bitrate=7164.8kbits/s speed=0.00837x elapsed=0:04:39.86    \nframe=  283 fps=1.0 q=30.3 size=    2048KiB time=00:00:02.34 bitrate=7164.8kbits/s speed=0.00835x elapsed=0:04:40.39    \nframe=  285 fps=1.0 q=29.1 size=    2048KiB time=00:00:02.35 bitrate=7114.2kbits/s speed=0.0084x elapsed=0:04:40.91    \nframe=  285 fps=1.0 q=29.1 size=    2048KiB time=00:00:02.35 bitrate=7114.2kbits/s speed=0.00838x elapsed=0:04:41.44    \nframe=  285 fps=1.0 q=29.1 size=    2048KiB time=00:00:02.35 bitrate=7114.2kbits/s speed=0.00836x elapsed=0:04:41.98    \nframe=  288 fps=1.0 q=28.5 size=    2048KiB time=00:00:02.38 bitrate=7039.5kbits/s speed=0.00844x elapsed=0:04:42.52    \nframe=  288 fps=1.0 q=28.5 size=    2048KiB time=00:00:02.38 bitrate=7039.5kbits/s speed=0.00842x elapsed=0:04:43.05    \nframe=  288 fps=1.0 q=28.5 size=    2048KiB time=00:00:02.38 bitrate=7039.5kbits/s speed=0.0084x elapsed=0:04:43.59    \nframe=  288 fps=1.0 q=28.5 size=    2048KiB time=00:00:02.38 bitrate=7039.5kbits/s speed=0.00839x elapsed=0:04:44.10    \nframe=  289 fps=1.0 q=27.3 size=    2048KiB time=00:00:02.39 bitrate=7015.0kbits/s speed=0.0084x elapsed=0:04:44.61    \nframe=  290 fps=1.0 q=26.6 size=    2048KiB time=00:00:02.40 bitrate=6990.7kbits/s speed=0.00842x elapsed=0:04:45.14    \nframe=  291 fps=1.0 q=23.6 size=    2048KiB time=00:00:02.40 bitrate=6966.5kbits/s speed=0.00843x elapsed=0:04:45.73    \nframe=  292 fps=1.0 q=25.0 size=    2304KiB time=00:00:02.41 bitrate=7810.2kbits/s speed=0.00844x elapsed=0:04:46.25    \nframe=  293 fps=1.0 q=25.7 size=    2304KiB time=00:00:02.42 bitrate=7783.4kbits/s speed=0.00846x elapsed=0:04:46.77    \nframe=  293 fps=1.0 q=25.7 size=    2304KiB time=00:00:02.42 bitrate=7783.4kbits/s speed=0.00844x elapsed=0:04:47.29    \nframe=  294 fps=1.0 q=25.4 size=    2304KiB time=00:00:02.43 bitrate=7756.7kbits/s speed=0.00845x elapsed=0:04:47.83    \nframe=  294 fps=1.0 q=25.4 size=    2304KiB time=00:00:02.43 bitrate=7756.7kbits/s speed=0.00844x elapsed=0:04:48.37    \nframe=  294 fps=1.0 q=25.4 size=    2304KiB time=00:00:02.43 bitrate=7756.7kbits/s speed=0.00842x elapsed=0:04:48.91    \nframe=  295 fps=1.0 q=25.4 size=    2304KiB time=00:00:02.44 bitrate=7730.3kbits/s speed=0.00844x elapsed=0:04:49.43    \nframe=  296 fps=1.0 q=23.5 size=    2304KiB time=00:00:02.45 bitrate=7704.0kbits/s speed=0.00845x elapsed=0:04:49.94    \nframe=  297 fps=1.0 q=24.8 size=    2304KiB time=00:00:02.45 bitrate=7677.9kbits/s speed=0.00846x elapsed=0:04:50.46    \nframe=  297 fps=1.0 q=24.8 size=    2304KiB time=00:00:02.45 bitrate=7677.9kbits/s speed=0.00845x elapsed=0:04:51.01    \nframe=  299 fps=1.0 q=24.1 size=    2304KiB time=00:00:02.47 bitrate=7626.1kbits/s speed=0.00849x elapsed=0:04:51.53    \n[mp4 @ 000001ffeae49b80] Starting second pass: moving the moov atom to the beginning of the file\n[out#0/mp4 @ 000001ffeae49a80] video:2372KiB audio:0KiB subtitle:0KiB other streams:0KiB global headers:2KiB muxing overhead: 0.281380%\nframe=  300 fps=1.0 q=26.2 Lsize=    2379KiB time=00:00:02.48 bitrate=7847.3kbits/s speed=0.00851x elapsed=0:04:51.65    \nx265 [info]: frame I:      2, Avg QP:31.99  kb/s: 73365.60\nx265 [info]: frame P:     59, Avg QP:31.07  kb/s: 17560.25\nx265 [info]: frame B:    239, Avg QP:36.21  kb/s: 4803.32 \nx265 [info]: Weighted P-Frames: Y:0.0% UV:0.0%\n\nencoded 300 frames in 291.56s (1.03 fps), 7769.27 kb/s, Avg QP:35.17\n",
  "seconds": 291.8090147972107,
  "probe_out": {}
}